<mxfile host="app.diagrams.net" modified="2023-11-23T13:16:34.041Z" agent="Mozilla/5.0 (Macintosh; Intel Mac OS X 10_15_7) AppleWebKit/537.36 (KHTML, like Gecko) Chrome/119.0.0.0 Safari/537.36" etag="uDOHZPjMZScPNJRvuyN-" version="22.1.3" type="device">
  <diagram name="페이지-1" id="k-PGukx9nXa_avxQjpJs">
    <mxGraphModel dx="2261" dy="761" grid="1" gridSize="10" guides="1" tooltips="1" connect="1" arrows="1" fold="1" page="1" pageScale="1" pageWidth="827" pageHeight="1169" math="0" shadow="0">
      <root>
        <mxCell id="0" />
        <mxCell id="1" parent="0" />
        <mxCell id="21zfCVTrZPB9-jWkPUX8-2" value="My VPC" style="sketch=0;outlineConnect=0;gradientColor=none;html=1;whiteSpace=wrap;fontSize=12;fontStyle=0;shape=mxgraph.aws4.group;grIcon=mxgraph.aws4.group_vpc;strokeColor=#879196;fillColor=none;verticalAlign=top;align=left;spacingLeft=30;fontColor=#879196;dashed=0;" parent="1" vertex="1">
          <mxGeometry x="-120" y="640" width="640" height="750" as="geometry" />
        </mxCell>
        <mxCell id="21zfCVTrZPB9-jWkPUX8-16" value="Private subnet" style="points=[[0,0],[0.25,0],[0.5,0],[0.75,0],[1,0],[1,0.25],[1,0.5],[1,0.75],[1,1],[0.75,1],[0.5,1],[0.25,1],[0,1],[0,0.75],[0,0.5],[0,0.25]];outlineConnect=0;gradientColor=none;html=1;whiteSpace=wrap;fontSize=12;fontStyle=0;container=1;pointerEvents=0;collapsible=0;recursiveResize=0;shape=mxgraph.aws4.group;grIcon=mxgraph.aws4.group_security_group;grStroke=0;strokeColor=#00A4A6;fillColor=#E6F6F7;verticalAlign=top;align=left;spacingLeft=30;fontColor=#147EBA;dashed=0;" parent="1" vertex="1">
          <mxGeometry x="240" y="800" width="240" height="280" as="geometry" />
        </mxCell>
        <mxCell id="21zfCVTrZPB9-jWkPUX8-15" value="Private subnet" style="points=[[0,0],[0.25,0],[0.5,0],[0.75,0],[1,0],[1,0.25],[1,0.5],[1,0.75],[1,1],[0.75,1],[0.5,1],[0.25,1],[0,1],[0,0.75],[0,0.5],[0,0.25]];outlineConnect=0;gradientColor=none;html=1;whiteSpace=wrap;fontSize=12;fontStyle=0;container=1;pointerEvents=0;collapsible=0;recursiveResize=0;shape=mxgraph.aws4.group;grIcon=mxgraph.aws4.group_security_group;grStroke=0;strokeColor=#00A4A6;fillColor=#E6F6F7;verticalAlign=top;align=left;spacingLeft=30;fontColor=#147EBA;dashed=0;" parent="1" vertex="1">
          <mxGeometry x="-80" y="800" width="240" height="280" as="geometry" />
        </mxCell>
        <mxCell id="21zfCVTrZPB9-jWkPUX8-51" value="worker node(by karpenter)" style="rounded=1;whiteSpace=wrap;html=1;fillColor=default;labelPosition=center;verticalLabelPosition=top;align=center;verticalAlign=bottom;fontSize=10;" parent="21zfCVTrZPB9-jWkPUX8-15" vertex="1">
          <mxGeometry x="20" y="160" width="210" height="80" as="geometry" />
        </mxCell>
        <mxCell id="21zfCVTrZPB9-jWkPUX8-12" value="Intra subnet" style="points=[[0,0],[0.25,0],[0.5,0],[0.75,0],[1,0],[1,0.25],[1,0.5],[1,0.75],[1,1],[0.75,1],[0.5,1],[0.25,1],[0,1],[0,0.75],[0,0.5],[0,0.25]];outlineConnect=0;gradientColor=none;html=1;whiteSpace=wrap;fontSize=12;fontStyle=0;container=1;pointerEvents=0;collapsible=0;recursiveResize=0;shape=mxgraph.aws4.group;grIcon=mxgraph.aws4.group_security_group;grStroke=0;strokeColor=#00A4A6;fillColor=#E6F6F7;verticalAlign=top;align=left;spacingLeft=30;fontColor=#147EBA;dashed=0;" parent="1" vertex="1">
          <mxGeometry x="240" y="670" width="240" height="100" as="geometry" />
        </mxCell>
        <mxCell id="21zfCVTrZPB9-jWkPUX8-23" value="EKS-owned ENI" style="outlineConnect=0;dashed=0;verticalLabelPosition=bottom;verticalAlign=top;align=center;html=1;shape=mxgraph.aws3.elastic_network_interface;fillColor=#F58534;gradientColor=none;fontSize=10;" parent="21zfCVTrZPB9-jWkPUX8-12" vertex="1">
          <mxGeometry x="107" y="44" width="30" height="30" as="geometry" />
        </mxCell>
        <mxCell id="21zfCVTrZPB9-jWkPUX8-11" value="Intra subnet" style="points=[[0,0],[0.25,0],[0.5,0],[0.75,0],[1,0],[1,0.25],[1,0.5],[1,0.75],[1,1],[0.75,1],[0.5,1],[0.25,1],[0,1],[0,0.75],[0,0.5],[0,0.25]];outlineConnect=0;gradientColor=none;html=1;whiteSpace=wrap;fontSize=12;fontStyle=0;container=1;pointerEvents=0;collapsible=0;recursiveResize=0;shape=mxgraph.aws4.group;grIcon=mxgraph.aws4.group_security_group;grStroke=0;strokeColor=#00A4A6;fillColor=#E6F6F7;verticalAlign=top;align=left;spacingLeft=30;fontColor=#147EBA;dashed=0;" parent="1" vertex="1">
          <mxGeometry x="-80" y="670" width="240" height="100" as="geometry" />
        </mxCell>
        <mxCell id="21zfCVTrZPB9-jWkPUX8-79" value="EKS-owned ENI" style="outlineConnect=0;dashed=0;verticalLabelPosition=bottom;verticalAlign=top;align=center;html=1;shape=mxgraph.aws3.elastic_network_interface;fillColor=#F58534;gradientColor=none;fontSize=10;" parent="21zfCVTrZPB9-jWkPUX8-11" vertex="1">
          <mxGeometry x="95" y="44" width="30" height="30" as="geometry" />
        </mxCell>
        <mxCell id="21zfCVTrZPB9-jWkPUX8-78" value="eks-cluster-sg" style="rounded=1;arcSize=10;dashed=1;strokeColor=#ff0000;fillColor=none;gradientColor=none;dashPattern=8 4;strokeWidth=1;verticalAlign=bottom;labelPosition=center;verticalLabelPosition=top;align=center;fontColor=#FF3333;" parent="1" vertex="1">
          <mxGeometry x="-70" y="680" width="540" height="241" as="geometry" />
        </mxCell>
        <mxCell id="21zfCVTrZPB9-jWkPUX8-74" value="controlplane-sg" style="rounded=1;arcSize=10;dashed=1;strokeColor=#ff0000;fillColor=none;gradientColor=none;dashPattern=8 4;strokeWidth=1;verticalAlign=bottom;labelPosition=center;verticalLabelPosition=top;align=center;fontColor=#FF3333;" parent="1" vertex="1">
          <mxGeometry x="-50" y="710" width="500" height="57" as="geometry" />
        </mxCell>
        <mxCell id="21zfCVTrZPB9-jWkPUX8-17" value="Database subnet" style="points=[[0,0],[0.25,0],[0.5,0],[0.75,0],[1,0],[1,0.25],[1,0.5],[1,0.75],[1,1],[0.75,1],[0.5,1],[0.25,1],[0,1],[0,0.75],[0,0.5],[0,0.25]];outlineConnect=0;gradientColor=none;html=1;whiteSpace=wrap;fontSize=12;fontStyle=0;container=1;pointerEvents=0;collapsible=0;recursiveResize=0;shape=mxgraph.aws4.group;grIcon=mxgraph.aws4.group_security_group;grStroke=0;strokeColor=#00A4A6;fillColor=#E6F6F7;verticalAlign=top;align=left;spacingLeft=30;fontColor=#147EBA;dashed=0;" parent="1" vertex="1">
          <mxGeometry x="-80" y="1110" width="240" height="100" as="geometry" />
        </mxCell>
        <mxCell id="21zfCVTrZPB9-jWkPUX8-58" value="RDS" style="outlineConnect=0;dashed=0;verticalLabelPosition=bottom;verticalAlign=top;align=center;html=1;shape=mxgraph.aws3.rds;fillColor=#2E73B8;gradientColor=none;fontSize=10;" parent="21zfCVTrZPB9-jWkPUX8-17" vertex="1">
          <mxGeometry x="110" y="30" width="30" height="40" as="geometry" />
        </mxCell>
        <mxCell id="21zfCVTrZPB9-jWkPUX8-38" value="Deployments(node group)" style="rounded=1;whiteSpace=wrap;html=1;labelPosition=center;verticalLabelPosition=top;align=center;verticalAlign=bottom;" parent="1" vertex="1">
          <mxGeometry x="560" y="834" width="235" height="170" as="geometry" />
        </mxCell>
        <mxCell id="21zfCVTrZPB9-jWkPUX8-36" value="DaemonSets(All nodes)" style="rounded=1;whiteSpace=wrap;html=1;labelPosition=center;verticalLabelPosition=top;align=center;verticalAlign=bottom;" parent="1" vertex="1">
          <mxGeometry x="560" y="684" width="180" height="90" as="geometry" />
        </mxCell>
        <mxCell id="21zfCVTrZPB9-jWkPUX8-1" value="AWS Managed VPC" style="sketch=0;outlineConnect=0;gradientColor=none;html=1;whiteSpace=wrap;fontSize=12;fontStyle=0;shape=mxgraph.aws4.group;grIcon=mxgraph.aws4.group_vpc;strokeColor=#879196;fillColor=none;verticalAlign=top;align=left;spacingLeft=30;fontColor=#879196;dashed=0;" parent="1" vertex="1">
          <mxGeometry x="-118.5" y="450" width="640" height="150" as="geometry" />
        </mxCell>
        <mxCell id="21zfCVTrZPB9-jWkPUX8-22" value="Control Plane" style="rounded=1;whiteSpace=wrap;html=1;fillColor=default;labelPosition=center;verticalLabelPosition=top;align=center;verticalAlign=bottom;" parent="1" vertex="1">
          <mxGeometry x="300" y="485" width="120" height="100" as="geometry" />
        </mxCell>
        <mxCell id="21zfCVTrZPB9-jWkPUX8-21" value="Control Plane" style="rounded=1;whiteSpace=wrap;html=1;fillColor=default;labelPosition=center;verticalLabelPosition=top;align=center;verticalAlign=bottom;" parent="1" vertex="1">
          <mxGeometry x="-30" y="485" width="120" height="100" as="geometry" />
        </mxCell>
        <mxCell id="21zfCVTrZPB9-jWkPUX8-5" value="API server" style="sketch=0;html=1;dashed=0;whitespace=wrap;fillColor=#2875E2;strokeColor=#ffffff;points=[[0.005,0.63,0],[0.1,0.2,0],[0.9,0.2,0],[0.5,0,0],[0.995,0.63,0],[0.72,0.99,0],[0.5,1,0],[0.28,0.99,0]];verticalLabelPosition=bottom;align=center;verticalAlign=top;shape=mxgraph.kubernetes.icon;prIcon=api;fontSize=10;" parent="1" vertex="1">
          <mxGeometry x="3" y="505" width="50" height="48" as="geometry" />
        </mxCell>
        <mxCell id="21zfCVTrZPB9-jWkPUX8-6" value="API server" style="sketch=0;html=1;dashed=0;whitespace=wrap;fillColor=#2875E2;strokeColor=#ffffff;points=[[0.005,0.63,0],[0.1,0.2,0],[0.9,0.2,0],[0.5,0,0],[0.995,0.63,0],[0.72,0.99,0],[0.5,1,0],[0.28,0.99,0]];verticalLabelPosition=bottom;align=center;verticalAlign=top;shape=mxgraph.kubernetes.icon;prIcon=api;fontSize=10;" parent="1" vertex="1">
          <mxGeometry x="335" y="505" width="50" height="48" as="geometry" />
        </mxCell>
        <mxCell id="21zfCVTrZPB9-jWkPUX8-9" value="Public subnet" style="points=[[0,0],[0.25,0],[0.5,0],[0.75,0],[1,0],[1,0.25],[1,0.5],[1,0.75],[1,1],[0.75,1],[0.5,1],[0.25,1],[0,1],[0,0.75],[0,0.5],[0,0.25]];outlineConnect=0;gradientColor=none;html=1;whiteSpace=wrap;fontSize=12;fontStyle=0;container=1;pointerEvents=0;collapsible=0;recursiveResize=0;shape=mxgraph.aws4.group;grIcon=mxgraph.aws4.group_security_group;grStroke=0;strokeColor=#7AA116;fillColor=#F2F6E8;verticalAlign=top;align=left;spacingLeft=30;fontColor=#248814;dashed=0;" parent="1" vertex="1">
          <mxGeometry x="-80" y="1240" width="240" height="80" as="geometry" />
        </mxCell>
        <mxCell id="21zfCVTrZPB9-jWkPUX8-10" value="Public subnet" style="points=[[0,0],[0.25,0],[0.5,0],[0.75,0],[1,0],[1,0.25],[1,0.5],[1,0.75],[1,1],[0.75,1],[0.5,1],[0.25,1],[0,1],[0,0.75],[0,0.5],[0,0.25]];outlineConnect=0;gradientColor=none;html=1;whiteSpace=wrap;fontSize=12;fontStyle=0;container=1;pointerEvents=0;collapsible=0;recursiveResize=0;shape=mxgraph.aws4.group;grIcon=mxgraph.aws4.group_security_group;grStroke=0;strokeColor=#7AA116;fillColor=#F2F6E8;verticalAlign=top;align=left;spacingLeft=30;fontColor=#248814;dashed=0;" parent="1" vertex="1">
          <mxGeometry x="240" y="1240" width="240" height="80" as="geometry" />
        </mxCell>
        <mxCell id="21zfCVTrZPB9-jWkPUX8-18" value="Database subnet" style="points=[[0,0],[0.25,0],[0.5,0],[0.75,0],[1,0],[1,0.25],[1,0.5],[1,0.75],[1,1],[0.75,1],[0.5,1],[0.25,1],[0,1],[0,0.75],[0,0.5],[0,0.25]];outlineConnect=0;gradientColor=none;html=1;whiteSpace=wrap;fontSize=12;fontStyle=0;container=1;pointerEvents=0;collapsible=0;recursiveResize=0;shape=mxgraph.aws4.group;grIcon=mxgraph.aws4.group_security_group;grStroke=0;strokeColor=#00A4A6;fillColor=#E6F6F7;verticalAlign=top;align=left;spacingLeft=30;fontColor=#147EBA;dashed=0;" parent="1" vertex="1">
          <mxGeometry x="240" y="1110" width="240" height="100" as="geometry" />
        </mxCell>
        <mxCell id="21zfCVTrZPB9-jWkPUX8-64" value="database-sg" style="rounded=1;arcSize=10;dashed=1;strokeColor=#ff0000;fillColor=none;gradientColor=none;dashPattern=8 4;strokeWidth=1;verticalAlign=bottom;labelPosition=center;verticalLabelPosition=top;align=center;fontColor=#FF3333;" parent="21zfCVTrZPB9-jWkPUX8-18" vertex="1">
          <mxGeometry x="-290" y="30" width="500" height="60" as="geometry" />
        </mxCell>
        <mxCell id="21zfCVTrZPB9-jWkPUX8-24" value="worker node(by node group)" style="rounded=1;whiteSpace=wrap;html=1;fillColor=default;labelPosition=center;verticalLabelPosition=top;align=center;verticalAlign=bottom;fontSize=10;" parent="1" vertex="1">
          <mxGeometry x="-60" y="834" width="210" height="76" as="geometry" />
        </mxCell>
        <mxCell id="21zfCVTrZPB9-jWkPUX8-25" value="worker node(by node group)" style="rounded=1;whiteSpace=wrap;html=1;fillColor=default;labelPosition=center;verticalLabelPosition=top;align=center;verticalAlign=bottom;fontSize=10;" parent="1" vertex="1">
          <mxGeometry x="255" y="834" width="210" height="76" as="geometry" />
        </mxCell>
        <mxCell id="21zfCVTrZPB9-jWkPUX8-26" value="ALB-Controller" style="sketch=0;html=1;dashed=0;whitespace=wrap;fillColor=#2875E2;strokeColor=#ffffff;points=[[0.005,0.63,0],[0.1,0.2,0],[0.9,0.2,0],[0.5,0,0],[0.995,0.63,0],[0.72,0.99,0],[0.5,1,0],[0.28,0.99,0]];verticalLabelPosition=bottom;align=center;verticalAlign=top;shape=mxgraph.kubernetes.icon;prIcon=pod;fontSize=10;" parent="1" vertex="1">
          <mxGeometry x="730" y="936" width="45" height="34" as="geometry" />
        </mxCell>
        <mxCell id="21zfCVTrZPB9-jWkPUX8-28" value="kube-proxy&lt;br&gt;(Add-on)" style="sketch=0;html=1;dashed=0;whitespace=wrap;fillColor=#2875E2;strokeColor=#ffffff;points=[[0.005,0.63,0],[0.1,0.2,0],[0.9,0.2,0],[0.5,0,0],[0.995,0.63,0],[0.72,0.99,0],[0.5,1,0],[0.28,0.99,0]];verticalLabelPosition=bottom;align=center;verticalAlign=top;shape=mxgraph.kubernetes.icon;prIcon=k_proxy;fontSize=10;" parent="1" vertex="1">
          <mxGeometry x="570" y="699.5" width="40" height="39" as="geometry" />
        </mxCell>
        <mxCell id="21zfCVTrZPB9-jWkPUX8-30" value="efs-csi-node&lt;br&gt;(Add-on)" style="sketch=0;html=1;dashed=0;whitespace=wrap;fillColor=#2875E2;strokeColor=#ffffff;points=[[0.005,0.63,0],[0.1,0.2,0],[0.9,0.2,0],[0.5,0,0],[0.995,0.63,0],[0.72,0.99,0],[0.5,1,0],[0.28,0.99,0]];verticalLabelPosition=bottom;align=center;verticalAlign=top;shape=mxgraph.kubernetes.icon;prIcon=pod;fontSize=10;" parent="1" vertex="1">
          <mxGeometry x="690" y="700.5" width="40" height="38" as="geometry" />
        </mxCell>
        <mxCell id="21zfCVTrZPB9-jWkPUX8-31" value="aws-node&lt;br&gt;(Add-on)" style="sketch=0;html=1;dashed=0;whitespace=wrap;fillColor=#2875E2;strokeColor=#ffffff;points=[[0.005,0.63,0],[0.1,0.2,0],[0.9,0.2,0],[0.5,0,0],[0.995,0.63,0],[0.72,0.99,0],[0.5,1,0],[0.28,0.99,0]];verticalLabelPosition=bottom;align=center;verticalAlign=top;shape=mxgraph.kubernetes.icon;prIcon=pod;fontSize=10;" parent="1" vertex="1">
          <mxGeometry x="630" y="700.5" width="40" height="38" as="geometry" />
        </mxCell>
        <mxCell id="21zfCVTrZPB9-jWkPUX8-42" value="coredns&lt;br&gt;(Add-on)" style="sketch=0;html=1;dashed=0;whitespace=wrap;fillColor=#2875E2;strokeColor=#ffffff;points=[[0.005,0.63,0],[0.1,0.2,0],[0.9,0.2,0],[0.5,0,0],[0.995,0.63,0],[0.72,0.99,0],[0.5,1,0],[0.28,0.99,0]];verticalLabelPosition=bottom;align=center;verticalAlign=top;shape=mxgraph.kubernetes.icon;prIcon=pod;fontSize=10;" parent="1" vertex="1">
          <mxGeometry x="570" y="937" width="45" height="34" as="geometry" />
        </mxCell>
        <mxCell id="21zfCVTrZPB9-jWkPUX8-43" value="efs-csi-controller&lt;br&gt;(Add-on)" style="sketch=0;html=1;dashed=0;whitespace=wrap;fillColor=#2875E2;strokeColor=#ffffff;points=[[0.005,0.63,0],[0.1,0.2,0],[0.9,0.2,0],[0.5,0,0],[0.995,0.63,0],[0.72,0.99,0],[0.5,1,0],[0.28,0.99,0]];verticalLabelPosition=bottom;align=center;verticalAlign=top;shape=mxgraph.kubernetes.icon;prIcon=pod;fontSize=10;" parent="1" vertex="1">
          <mxGeometry x="644.63" y="934" width="45" height="34" as="geometry" />
        </mxCell>
        <mxCell id="21zfCVTrZPB9-jWkPUX8-44" value="karpenter" style="sketch=0;html=1;dashed=0;whitespace=wrap;fillColor=#2875E2;strokeColor=#ffffff;points=[[0.005,0.63,0],[0.1,0.2,0],[0.9,0.2,0],[0.5,0,0],[0.995,0.63,0],[0.72,0.99,0],[0.5,1,0],[0.28,0.99,0]];verticalLabelPosition=bottom;align=center;verticalAlign=top;shape=mxgraph.kubernetes.icon;prIcon=pod;fontSize=10;" parent="1" vertex="1">
          <mxGeometry x="569.5" y="858" width="45" height="34" as="geometry" />
        </mxCell>
        <mxCell id="21zfCVTrZPB9-jWkPUX8-46" value="metrics-server" style="sketch=0;html=1;dashed=0;whitespace=wrap;fillColor=#2875E2;strokeColor=#ffffff;points=[[0.005,0.63,0],[0.1,0.2,0],[0.9,0.2,0],[0.5,0,0],[0.995,0.63,0],[0.72,0.99,0],[0.5,1,0],[0.28,0.99,0]];verticalLabelPosition=bottom;align=center;verticalAlign=top;shape=mxgraph.kubernetes.icon;prIcon=pod;fontSize=10;" parent="1" vertex="1">
          <mxGeometry x="730" y="858" width="45" height="34" as="geometry" />
        </mxCell>
        <mxCell id="21zfCVTrZPB9-jWkPUX8-48" value="karpenter" style="sketch=0;html=1;dashed=0;whitespace=wrap;fillColor=#2875E2;strokeColor=#ffffff;points=[[0.005,0.63,0],[0.1,0.2,0],[0.9,0.2,0],[0.5,0,0],[0.995,0.63,0],[0.72,0.99,0],[0.5,1,0],[0.28,0.99,0]];verticalLabelPosition=bottom;align=center;verticalAlign=top;shape=mxgraph.kubernetes.icon;prIcon=pod;fontSize=10;" parent="1" vertex="1">
          <mxGeometry x="-24" y="851.75" width="45" height="34" as="geometry" />
        </mxCell>
        <mxCell id="21zfCVTrZPB9-jWkPUX8-49" value="karpenter" style="sketch=0;html=1;dashed=0;whitespace=wrap;fillColor=#2875E2;strokeColor=#ffffff;points=[[0.005,0.63,0],[0.1,0.2,0],[0.9,0.2,0],[0.5,0,0],[0.995,0.63,0],[0.72,0.99,0],[0.5,1,0],[0.28,0.99,0]];verticalLabelPosition=bottom;align=center;verticalAlign=top;shape=mxgraph.kubernetes.icon;prIcon=pod;fontSize=10;" parent="1" vertex="1">
          <mxGeometry x="290" y="851.75" width="45" height="34" as="geometry" />
        </mxCell>
        <mxCell id="21zfCVTrZPB9-jWkPUX8-50" value="ALB" style="sketch=0;outlineConnect=0;fontColor=#232F3E;gradientColor=none;fillColor=#8C4FFF;strokeColor=none;dashed=0;verticalLabelPosition=bottom;verticalAlign=top;align=center;html=1;fontSize=12;fontStyle=0;aspect=fixed;pointerEvents=1;shape=mxgraph.aws4.application_load_balancer;" parent="1" vertex="1">
          <mxGeometry x="177.5" y="1257.5" width="45" height="45" as="geometry" />
        </mxCell>
        <mxCell id="21zfCVTrZPB9-jWkPUX8-57" value="worker node(by karpenter)" style="rounded=1;whiteSpace=wrap;html=1;fillColor=default;labelPosition=center;verticalLabelPosition=top;align=center;verticalAlign=bottom;fontSize=10;" parent="1" vertex="1">
          <mxGeometry x="255" y="964" width="210" height="80" as="geometry" />
        </mxCell>
        <mxCell id="21zfCVTrZPB9-jWkPUX8-62" value="" style="endArrow=none;dashed=1;html=1;rounded=0;entryX=0.5;entryY=1;entryDx=0;entryDy=0;entryPerimeter=0;exitX=0.5;exitY=0;exitDx=0;exitDy=0;exitPerimeter=0;" parent="1" source="21zfCVTrZPB9-jWkPUX8-79" target="21zfCVTrZPB9-jWkPUX8-5" edge="1">
          <mxGeometry width="50" height="50" relative="1" as="geometry">
            <mxPoint x="25" y="708" as="sourcePoint" />
            <mxPoint x="440" y="510" as="targetPoint" />
          </mxGeometry>
        </mxCell>
        <mxCell id="21zfCVTrZPB9-jWkPUX8-63" value="" style="endArrow=none;dashed=1;html=1;rounded=0;exitX=0.5;exitY=0;exitDx=0;exitDy=0;exitPerimeter=0;entryX=0.5;entryY=1;entryDx=0;entryDy=0;entryPerimeter=0;" parent="1" source="21zfCVTrZPB9-jWkPUX8-23" target="21zfCVTrZPB9-jWkPUX8-6" edge="1">
          <mxGeometry width="50" height="50" relative="1" as="geometry">
            <mxPoint x="390" y="560" as="sourcePoint" />
            <mxPoint x="440" y="510" as="targetPoint" />
          </mxGeometry>
        </mxCell>
        <mxCell id="21zfCVTrZPB9-jWkPUX8-65" value="RDS" style="outlineConnect=0;dashed=0;verticalLabelPosition=bottom;verticalAlign=top;align=center;html=1;shape=mxgraph.aws3.rds;fillColor=#2E73B8;gradientColor=none;fontSize=10;" parent="1" vertex="1">
          <mxGeometry x="345" y="1140" width="30" height="40" as="geometry" />
        </mxCell>
        <mxCell id="21zfCVTrZPB9-jWkPUX8-66" value="hello" style="sketch=0;html=1;dashed=0;whitespace=wrap;fillColor=#2875E2;strokeColor=#ffffff;points=[[0.005,0.63,0],[0.1,0.2,0],[0.9,0.2,0],[0.5,0,0],[0.995,0.63,0],[0.72,0.99,0],[0.5,1,0],[0.28,0.99,0]];verticalLabelPosition=bottom;align=center;verticalAlign=top;shape=mxgraph.kubernetes.icon;prIcon=pod" parent="1" vertex="1">
          <mxGeometry x="-38" y="970" width="38" height="34" as="geometry" />
        </mxCell>
        <mxCell id="21zfCVTrZPB9-jWkPUX8-67" value="hello" style="sketch=0;html=1;dashed=0;whitespace=wrap;fillColor=#2875E2;strokeColor=#ffffff;points=[[0.005,0.63,0],[0.1,0.2,0],[0.9,0.2,0],[0.5,0,0],[0.995,0.63,0],[0.72,0.99,0],[0.5,1,0],[0.28,0.99,0]];verticalLabelPosition=bottom;align=center;verticalAlign=top;shape=mxgraph.kubernetes.icon;prIcon=pod" parent="1" vertex="1">
          <mxGeometry x="280" y="974" width="38" height="34" as="geometry" />
        </mxCell>
        <mxCell id="21zfCVTrZPB9-jWkPUX8-68" value="dongle" style="sketch=0;html=1;dashed=0;whitespace=wrap;fillColor=#2875E2;strokeColor=#ffffff;points=[[0.005,0.63,0],[0.1,0.2,0],[0.9,0.2,0],[0.5,0,0],[0.995,0.63,0],[0.72,0.99,0],[0.5,1,0],[0.28,0.99,0]];verticalLabelPosition=bottom;align=center;verticalAlign=top;shape=mxgraph.kubernetes.icon;prIcon=pod" parent="1" vertex="1">
          <mxGeometry x="21" y="970" width="38" height="34" as="geometry" />
        </mxCell>
        <mxCell id="21zfCVTrZPB9-jWkPUX8-69" value="dongle" style="sketch=0;html=1;dashed=0;whitespace=wrap;fillColor=#2875E2;strokeColor=#ffffff;points=[[0.005,0.63,0],[0.1,0.2,0],[0.9,0.2,0],[0.5,0,0],[0.995,0.63,0],[0.72,0.99,0],[0.5,1,0],[0.28,0.99,0]];verticalLabelPosition=bottom;align=center;verticalAlign=top;shape=mxgraph.kubernetes.icon;prIcon=pod" parent="1" vertex="1">
          <mxGeometry x="341" y="974" width="38" height="34" as="geometry" />
        </mxCell>
        <mxCell id="21zfCVTrZPB9-jWkPUX8-70" value="test" style="sketch=0;html=1;dashed=0;whitespace=wrap;fillColor=#2875E2;strokeColor=#ffffff;points=[[0.005,0.63,0],[0.1,0.2,0],[0.9,0.2,0],[0.5,0,0],[0.995,0.63,0],[0.72,0.99,0],[0.5,1,0],[0.28,0.99,0]];verticalLabelPosition=bottom;align=center;verticalAlign=top;shape=mxgraph.kubernetes.icon;prIcon=pod" parent="1" vertex="1">
          <mxGeometry x="80" y="970" width="38" height="34" as="geometry" />
        </mxCell>
        <mxCell id="21zfCVTrZPB9-jWkPUX8-71" value="test" style="sketch=0;html=1;dashed=0;whitespace=wrap;fillColor=#2875E2;strokeColor=#ffffff;points=[[0.005,0.63,0],[0.1,0.2,0],[0.9,0.2,0],[0.5,0,0],[0.995,0.63,0],[0.72,0.99,0],[0.5,1,0],[0.28,0.99,0]];verticalLabelPosition=bottom;align=center;verticalAlign=top;shape=mxgraph.kubernetes.icon;prIcon=pod" parent="1" vertex="1">
          <mxGeometry x="395" y="974" width="38" height="34" as="geometry" />
        </mxCell>
        <mxCell id="21zfCVTrZPB9-jWkPUX8-77" value="node-sg" style="rounded=1;arcSize=10;dashed=1;strokeColor=#ff0000;fillColor=none;gradientColor=none;dashPattern=8 4;strokeWidth=1;verticalAlign=bottom;labelPosition=center;verticalLabelPosition=top;align=center;fontColor=#FF3333;" parent="1" vertex="1">
          <mxGeometry x="-67" y="944" width="537" height="114" as="geometry" />
        </mxCell>
        <mxCell id="38cyn2MbKqffcB4etDlk-2" value="IGW" style="sketch=0;outlineConnect=0;fontColor=#232F3E;gradientColor=none;fillColor=#8C4FFF;strokeColor=none;dashed=0;verticalLabelPosition=bottom;verticalAlign=top;align=center;html=1;fontSize=12;fontStyle=0;aspect=fixed;pointerEvents=1;shape=mxgraph.aws4.internet_gateway;" parent="1" vertex="1">
          <mxGeometry x="180" y="1370" width="40" height="40" as="geometry" />
        </mxCell>
        <mxCell id="VgT5aje4Y89rEEMWAGqi-7" value="Linkerd Control Plane" style="shape=image;imageAspect=0;aspect=fixed;verticalLabelPosition=bottom;verticalAlign=top;image=data:image/png,iVBORw0KGgoAAAANSUhEUgAAANcAAADICAYAAAB7/XT7AAAACXBIWXMAAAsTAAALEwEAmpwYAAAFFmlUWHRYTUw6Y29tLmFkb2JlLnhtcAAAAAAAPD94cGFja2V0IGJlZ2luPSLvu78iIGlkPSJXNU0wTXBDZWhpSHpyZVN6TlRjemtjOWQiPz4gPHg6eG1wbWV0YSB4bWxuczp4PSJhZG9iZTpuczptZXRhLyIgeDp4bXB0az0iQWRvYmUgWE1QIENvcmUgNS42LWMxNDAgNzkuMTYwNDUxLCAyMDE3LzA1LzA2LTAxOjA4OjIxICAgICAgICAiPiA8cmRmOlJERiB4bWxuczpyZGY9Imh0dHA6Ly93d3cudzMub3JnLzE5OTkvMDIvMjItcmRmLXN5bnRheC1ucyMiPiA8cmRmOkRlc2NyaXB0aW9uIHJkZjphYm91dD0iIiB4bWxuczp4bXA9Imh0dHA6Ly9ucy5hZG9iZS5jb20veGFwLzEuMC8iIHhtbG5zOmRjPSJodHRwOi8vcHVybC5vcmcvZGMvZWxlbWVudHMvMS4xLyIgeG1sbnM6cGhvdG9zaG9wPSJodHRwOi8vbnMuYWRvYmUuY29tL3Bob3Rvc2hvcC8xLjAvIiB4bWxuczp4bXBNTT0iaHR0cDovL25zLmFkb2JlLmNvbS94YXAvMS4wL21tLyIgeG1sbnM6c3RFdnQ9Imh0dHA6Ly9ucy5hZG9iZS5jb20veGFwLzEuMC9zVHlwZS9SZXNvdXJjZUV2ZW50IyIgeG1wOkNyZWF0b3JUb29sPSJBZG9iZSBQaG90b3Nob3AgQ0MgKE1hY2ludG9zaCkiIHhtcDpDcmVhdGVEYXRlPSIyMDE3LTEyLTA4VDExOjEwOjMwLTA4OjAwIiB4bXA6TW9kaWZ5RGF0ZT0iMjAxNy0xMi0wOFQxMToxNzoyMi0wODowMCIgeG1wOk1ldGFkYXRhRGF0ZT0iMjAxNy0xMi0wOFQxMToxNzoyMi0wODowMCIgZGM6Zm9ybWF0PSJpbWFnZS9wbmciIHBob3Rvc2hvcDpDb2xvck1vZGU9IjMiIHBob3Rvc2hvcDpJQ0NQcm9maWxlPSJzUkdCIElFQzYxOTY2LTIuMSIgeG1wTU06SW5zdGFuY2VJRD0ieG1wLmlpZDozZGI0ZTZhYi05N2UwLTQ5NGMtYTE2OC0yMjAwZDgwMTkxYjciIHhtcE1NOkRvY3VtZW50SUQ9InhtcC5kaWQ6M2RiNGU2YWItOTdlMC00OTRjLWExNjgtMjIwMGQ4MDE5MWI3IiB4bXBNTTpPcmlnaW5hbERvY3VtZW50SUQ9InhtcC5kaWQ6M2RiNGU2YWItOTdlMC00OTRjLWExNjgtMjIwMGQ4MDE5MWI3Ij4gPHhtcE1NOkhpc3Rvcnk+IDxyZGY6U2VxPiA8cmRmOmxpIHN0RXZ0OmFjdGlvbj0iY3JlYXRlZCIgc3RFdnQ6aW5zdGFuY2VJRD0ieG1wLmlpZDozZGI0ZTZhYi05N2UwLTQ5NGMtYTE2OC0yMjAwZDgwMTkxYjciIHN0RXZ0OndoZW49IjIwMTctMTItMDhUMTE6MTA6MzAtMDg6MDAiIHN0RXZ0OnNvZnR3YXJlQWdlbnQ9IkFkb2JlIFBob3Rvc2hvcCBDQyAoTWFjaW50b3NoKSIvPiA8L3JkZjpTZXE+IDwveG1wTU06SGlzdG9yeT4gPC9yZGY6RGVzY3JpcHRpb24+IDwvcmRmOlJERj4gPC94OnhtcG1ldGE+IDw/eHBhY2tldCBlbmQ9InIiPz4WxorCAAAqQElEQVR4nO2deZhUxdW439s9C4yAAhc0boAKgoVxyxc1GmPUxCRmMYlRr4nRLJr4i58ouMcYTdzAuOVLTKJGjRpL0bjEaFwTlbjgBgoXDKiIK0sBimwz0931+6Pu4MD0zHTfpe5t6Pd55vFx6K5z5t46VXWqzjnlUKdqhJIOcDRwGiCA94HrgEm+661MU7coCCVbgAnA8cCWgA9cCtziu55OU7daxElbgVpDKLk3cBXwP2X++T3gLODmWuqMwWBxJDAR2KbMR54HTvJd71mritU4deOqEKHkVsAk4KgKPj4VOLkWOqNQ8lOYweIzFXz8VuB03/XeTVarDYO6cfWCULIvZvl3BtBS5ddvBs7KYmcUSm4BXAwcQ3X9YBVmhrvUd73VSei2oVA3rm4IlkqHYzrSsAhNrQIuAi7PQmcUSjYDJwPnAP0iNDUfM+BMrqUlsE3qxlUGoeTuwJXAZ2Nsdj5wmu96d8TYZlUIJQ8FLgdGxNjsFMwS+KUY29wgqBvXeggljwX+DOQSEvEkMM53vekJtd8FoeTOGL/q8wmJKAE/8l3vxoTar0nqxrUeQsl3gK0SFqMxW/fn+K63KCkhQsnBwAXAcUA+KTkBC3zX+0TCMmqKpEbnWqbZggwH0+HnCiVPFUo2xdm4ULJBKHky8BrwU5I3LIA+FmTUFHXj6spEi7IGYA5pZwolvxZHg0LJLwMzgCuAzeJos0ImWZRVE9SXhWUQSn4Fs6Ex0rLoh4FTfNebVe0XhZI7YjYrvhK7Vj3zOjDBd717LcvNPHXj6oZgqXYi8EvMDGOLInA1cJ7vekt7+7BQcjPgXIyujcmqtg4fARcCV/qu12pRbs1QN65eEEoOBX4N/Bi7y+ilGKP5k+96hTJ65QOdfg0MsaiXBm4EzvZdb4FFuTVH3bgqRCi5K2ap+DnLon3MUvGRTrrsj9la/6RlXZ7CHCO8aFluTVI3rioRSn4H47wPtyz6Xoxxnwh827Lst4HTgdvr0RiVUzeuEAgl+2BSM84CNklZnSRZjRlIJmYhdKvWqBtXBISSWwKXYHK7NjRuw4RrvZO2IrVK3bhiQCi5J8YH2jNtXWLgBYxf9XTaitQ6NX2ILJQcHER5p4rvelOBvTEz2HspqxOWhcAPgD2zYFhCySah5MC09YhCzc1cQSrIUZht6lFAAbgT+Lnvem+kqRuAUHIT4EzgVGojJKgNc/h8ke96H6WtjFByBCYe8nCgAZgD/Aq4tdY2U2rKuISSnwZ+S/nlV9Y6yXBMKNXhKavSE3cDp2ZkUOoH/Bw4hfLxnVMxpQaes6pYBGrCuKrcOFiImTlu8l2vlKhiFSCU3A/jj+2asiqdmYHJwfpX2ooEK5HvY7KiK4mqvxk403e9zC+/M21cwZb3eOBsqt/yzoxjLpTMAT/CLHeGpqiKwiynry0X9WGbXor99MRKjDFe5rvemtgVi4nMGpdQ8jBMxPjwiE1lZktZKLkpJr1+HHbjAMFkQu/tu977luV2QSi5NWbJXEmxn554E1MwJ7Xs7p7InHElFGaUqcNQoeRI4DIgljSTKpiH8bHusiwXiFzspyeewCxzp8fYZmQyZVxBTtPfSG5Uz1QYj1DyYMwmzE6WRT+OWTK/YkNYjMV+eqIAfMt3vfsSar9qsnbOdSrJLpe2ASQwRSi5R4JyKsJ3vYeAXYCTgGUWRe8PTBNK/lEomWhEfVDs5wnM8jwpwwKzbX9agu1XTdZmrn9jXrwNMpU6IZQchDnPsZWW38GHwHnA733Xa4+rUaHk5ph8rx9ir5894bve/pZk9UrWjOsLwH3YqWPRQaaS/oSSAuNzHmRZ9ByM3/LPKI0ESabjgF8A/eNQrEJaga/7rvewRZk9kinjgtTT1U/1Xe8ey3LLIpT8OuY5bG9Z9IOY/LFXq/1iLeqcJJkzrg6CQiuXA6Mti34M86JmWJbbhRRngQLwe0ypgQ96+3DKs+0pvus9YFluRWTWuMCUCOPjOhabWRRdBK4BfuG73hKLcsuSkv8CHx86X+O7XrGMXmn6iecDv4vTT4ybTBtXB0JJF1MrwkZxy858gDHsqzMS0ZBEme1KWCdcKhj0TsB0cJuR6yXgWsygt9ii3FDUhHF1YKEsc3e8iulcD1mW2wVLZ0bdcTcwGbNMtX029wQmcNfK2Vwc1JRxdZDQhQKV8ABmjT/HstwuJBjtkDXexNRFTCWqJAo1aVyw9iqcUzBpClGuwqmWduD/gF/5rvehRblliTFOL2uswFy9dEWWg3N7omaNq4MIl7hFZTFmeXRtRlJbwkaYZ5G/YA73M59W0hOhOmOwS/QHzHU4ZYtW2qbK60fj5GWMP/a4ZbldCJEblTWewTzL1BMig02bn2I2j06opPrx+lRlXEFe0lWYnaKOXbtZmAfySLdftESni7MnAVtbFn8nJv1hnmW5XaggqzdrvIvxHTORyh9ECl3Jx5s2ReCPmA2VilcpFRuXULcdDfr3dH+YeR8w3ne91yptMymEki2Y6PfTgb4WRbdiUkku9l1vhUW5ZQnqUfwG+FbaunTDGkzO3iW+661KWxmh5A6YjbLuUoE+AudE3z3ypkra69W4xOLbPgnchaMrCWlpx1j8Bb7rLa9EgSQRSm6LcfaPtCz6PUzB0JszMhLvTzrlr3tiMmamn5+2IkLJARj/ubIkVu28BhzmDzny5Z4+1q1x7bT49gGgJzuO/mJPn+uGRZhlyfUZcfb3wXQu22kmz2Hypp61LLcLnS5uuABwU1RlGuaZTElRByBy+QWttfMw2jli1tAjyu4alzWanRbdPtHJlcZjcmSiMA3jjz0ZsZ3IBA/yGIyzv7ll8X8FzvBd713LcrvQ6cqh/yX6+62Wp4GDMpINvh9mlbVbxKYKupS7fNbQI85Y/x/WMa6dFt1+GI6+xnF03CEtkzGd682Y260aoWR/TB2Lk4FYr0vthVV8XFQlC51ro8w+SKrkndbOMrRz/KyhR9zZ8TsHYKeFk0fj6L85uVKSIS0dzutE3/VWJiinIoSS22E61zcsi56P8TUmW5Zblo0l+yAo1noGJqolsWKtupSbhXa+PWvzw191dlo4+S4nXzwUewewWdt2PQDjj421LHoKxveYZlluF4SSjcDPSCf74E/AuUllH3Sq0DwJ2DIJGWXQupi/xxn97t90rrGAk7O+7/AspnNl5cDwOIxjO8iiaA38GVOKe5FFuWXZ0LIPggrNVwF7xdVmJehSjlJ7A86ot+7RALmGAvnGAjjWJ5ObgLOyEOoSFP7/JSaHzGbnWo4x7Kt812uzKLcstZ59EFRovhgTrWIP7VBsb6BUMPtEzqj5935sTY4m31gg12g9/2wlJhkwE0GaQskxGD/kS5ZFz8U4+3+3LLcsQslvYg7FbWcf3I8JSKgq+yBiheZIlNobKbY3gP7Yu3JGvfn3LlOVkyuRa2oj19Al+TRp3sR0rr/ZFlwOoeQhGCMbZVn0w5jO5VuW24VayT4QSn4bE40yPGG91qFUyFNqa0KXulYpdEbOu6/bdWCuoUi+uTUNf+wJjD/W4wm4DYI6FidizoY2tSi6CFyNqWNRddBo3GQ1+0AouQtmCWv1InhdylFsbaZU6N57cEa+8Y9enax8Uzv55lbb/lgJuA44Jwsp3ULJoRhn/8fYLaa6DNO56tkHZsB9ItAjnfehHYqtzRTbeo+ScnZ4/f7KLMbRNPRpJd9k3d/+EFME5f+yUIwkrZGSevZBB3cCL2KuibK5kqDY1kRhTfM6flVPODu89kBV05GTL9LQdw25BuuD6ByMH3K/bcHliPEWlmr5OybtfWPOPrBKqdBAYXUfdLG6DWRn+zn/DLXWyze1q8Z+K5cBI8N8PwIPYoxstmW5XUhxd6qefWCHue0rNhlYbGsMFejsbD/nwbCO1Nt9Bi3bAROmfw4wIGQ7YegoWnm+73o2LzAoS2rnKvXsg6RYjvHnfrtmycDXMBd4VI2z3asPhTauN0YfvC2sLVp5ASZ83+ZO0hI+3knKgrPf053NSZK1NI5jMcVlbGcfRKVLxMx2rz70FqGNa/bD4Y1rzBe37fwLoeRumJHLdtHKmZjOlZU7fm3HsnWQpQTEtLIPwjIFk8Y/vfMvt5v9cHjjGjHrkdDGNW+nL2xb7h+EkodjOpftopX3YvyxLNxObyUKuwz17IPqmI+51rfs1a8jZj0Swbj8R8MblziorHHB2qKVEzDp7jaLVrYBVwAX+q73kUW5ZUkqf6gCspZ9cCBmE8Z29kF3VJRfN8J/NLxxDZ/5WGjjenPsgd0aVwdCya0wneu7IeWEZSHGsP+SEWc/rszXaqlnH3TlFuDMSjLDh898LLRx5dAOoX8qIPgDjgVuDqNgBDYHrgeeC3axUiUodfAp4HjMLp8t9gKmCiVvDHY1U8N3vYLven8AdsD45taDV4FbgR9VXHIhgn04w175d+iZa/4nP1/JzJVWpuv63IZx9t9OWY/qqw3FRxazD64ADrYsei7mIL7Xy8mHvfLv8MvCYS8/Ht64dtm/J58rrRoNPbEas9EyKSN18kZiUjq6q5OXFG9Szz6ACrIPhr38eHjj2nbaE6GN663dPtfFuFKuLlQpb2Oc/dsy4ux/ETOCb7TX8mQ1+2DbaU9EMK6XngxvXLvvt9a4MlQXrxqexjj7L6StSKfa5L/C/oVy9ewDWIox7HWyD7Z96cnwxrXNi1NCG9fbe3y2I0Jjf7JX0bVSNHAj5laNBSnrkvZVqFnKPtgVs7tqO/vAx1SlegRgmxenRDCuF/4T2rgGDH/7c2S7Fnk1rMDMulf6rteatjLBJd5XAF+wLDpTl3innX2w/M1t/kVo43r+qaqNy8lpmgd+sLxpwEfN1MYtGtUwD+Pk3pO2IgBCya9jNj12sCy6nn0A7W3L+69pXbZp/3Jp/L3hbP1cdcbV1H8lfQZ9gJNP44jCKv/CJCdaKVrZE4GzPw6zfd/dLTNJkMXsg0uAo23K1cU8a5ZuSttH1ZUQcbae+nRFxpXv00pfdyn5ZuuZyC9gwqh2A87DftHKazHOfiJFK6uhnn1gSCv7oNjaxBo1yGQjV4Cz1bPP9GhcuYYCfQYvo6m/9RjQBZjwpZs6wpeEkoMxO0nHY79o5fnA7zLSuXbHOPu2sw9mYGbzjTr7oH3FJqxWA9fWJ+wOZ6tnni1rXI6jaR74Ic2DPsCxW5imDXOgeFF3gbdB0corgANtKoYpWjned71/WpZbFqHkEZi4TdvZB/dgIhyykn1wJnAqFrMPtHZoXbYprUs3Q3cTCuhs+dTULpbT1H8FfYcsJddofZC+GxM5UNFLE0oeinH2t0tSqTI8gDGy/1qW24Ug++A0zKF4PfvAcvZBqdDA6sWDaFve1R9ztvzPc2uNK9+nlZahioYW62FnoZcbQdHKkzHp7jad/Xbgd5iilR9YlFuWIPtgEmapZJOFmJlj7fI9TdLKPiis7sPqhe46/pjziSnP61xDkb5DltC8mfVaJwpzKn6N73qRth+DopUXYSLw0yhaeV3UvyEOhJJ7YZz9/7Es+kVMKNXTluV2IeKNkZFo/bA/qxcNplRowBnhP6L7Dllqu6puxxbveXGP+kLJPTDRIrbTTF7BhFI9blluFwJn/2jMtvUnLIvPUvbBpphSA1azD3Qpx2o1CGfMgju0LuVsFvt8EBMB8GpSAjoVrZxIyNP1CPwNkzY+z7LcLggl+2EOXsdj97C/I/tgYkZu0bSafVBsa8LJlXB2WnybBii1NuE0FJMs9jkH41dZ22kLnP0zsF+0spWPdzxXWJRbFqHkCEwI0bcti96osg9KhTylQsPas2Bnp0W3r/NHF1ubyPdpjXP7/UPM4e/v0woIFUpujelctotWvs/HZ3VZ6Fz7Y5z9XSyLfgozsGYl++AEzLllLNkHWjsU1zR3CbBwxiyc3OWl65KDLjTQ0DfSrmEJE93wi4ykMmyOqTO+bwrin8c4+8+mIHsdOqUG/RoYYlH0Bpl9UFjdB6ehgJPrOnY6Yxbc0e2IWio04DilMCFPj2Oc+6wk4aURl1eOWzHOfmX1GxKkU1LridgtNbBBZB8UW5vQOtejG+WMfv/OXpcrpfZG8k2tlVyGNw9zCHxXNYomRRBRfjmwfdq6dGIVZqPl0ow4+2mVY3gDE+Vxj2W5Zak0+6BUyFNsa67o9lVn9Ht/q8wX0MbIGjdZVe6erhWYM6asFD4RGN/ioJRV6Yn5wBm+692etiIAQskvYUZw24WEaiP7QDu0r2wxUUsV7kc4O75zV3WOdimHBhpbVoNZR3dcGP5+Ve0kQIpZvFGYgulcL6WtSODsn4i5dH0zi6IznX3QvqovjgM41Z0FOzu+fXeoXSxdzBUa+63aJ0PFJmPdAbJMxwUA5/iutzBtZYLsgwswBTxtZx+ch9lZzkT2Qdvyfs/kGguhat07o966J/QW8ZxtD7UZZlQWoeTBGJ/BduWkJPgIs4t3le961hPn1ifIPrgSOMCy6FcxgQYPWpbbhR3e+Ech19DDxcc94Iyaf2944xr2jdSMSyg5ClO/w3bNPxu8jom6/3vaisDa7IPLgRGWRaeefbDD6/eHN66Rb/49tHHNHf5168aVVrxYSjyCGcG7LVppi07ZB+cA1eW7R6Mj++B83/U+tCgXgO1feyCCcc27L7xxjfiaNePqFOl8IfYPP2/CnAl9G+Ps2y5a+Ufg3HJFK22zsWUfbD/3n+GNa4fX7w9tXK9tf4iVhxvk6FwF7GpDXieewezkrd20EUoOwTj7totWLsMY9h8y4ux/CvNOPmNZ9MuYd/K4DWHb/fehCMb12gPhjWuHryRqXEF26STgO0nKKcO7mGBf2V1MoFDyk5i8KdtFK2dhlooPW5bbhY0h+2C7Vx8Ob1zbz/1naON6feSXEzGuoC7CWZiqT7ZvZexIlajoogah5LcwJ/vDE9SrHPdhIhzmWpbbBaFkC2YwSiP74DLg4qSyD0bMfiSCcc15MLxxjfpSrMYVjITfwyT5pXGf8Gm+671V7ReDopWnYEoNWC1aiVmaXZCGs78+QsltMINTGtkHZwI3x519MGLWo+GNa7tXHwqtzBujD47NuIL09CuxXIsOmIaJWP9P1IaCopUXAcdE1qo6FmF28f6ckToW+2CMfg/LomPPPhg+87EIxjX74fDGNeaLkY0rGPWvwXIVVUyHPAu4Me4OGRStvBLYO852K2Aaxtl/0rLcLgS7u8dg7h3e3LL4vwI/jiPOdfiMf4U2rpzWDmF/YsHBweFATKayDdowS5eRvutdn8RIH+wu7oNZ4tpML9kNeEIoeXuwGZQavuuVfNe7ARiJ2fCwFXEyB4f9ceI5JohiH84I/9HQM9c8cVDkP2Cnxbf1xaRhAMxyHD2E5M6x7sWkxLyWUPtdCJz9MzG1BW1vzvwGuMR3PevlktdHKLkdJsrjGwmJWKy1s5iPw+BaZg05MnJKz7CXHw+/LBw+87HQxvXm2AOjG9ei2zsbF0DRcfR0HD2W+IqqzMSE0TwSU3tVI5QchpkxrRatBN7D7OLdmpFSAwdg/LGxMTXZinZ8rZ1dWDfIuGXW0CMiG9e2058IvyyMclt5HJSZTvOlUm6PUjHfinamR2x+KSaFYrc0DQvAd735mG1j21WhtgRuAZ4JfMFUCQq/7gb8P8wFD+HRzvRSMd9aKuV219rJJ+K2RLCPBl1KObC9+4cwoFTM7+o4+i0nX2ynumzijntuf5mhq28uBr6fohp7AlOFkjcDZ/qu915aigQRJn8QSt6GiTo5kepSW97QxXyD1s6uSejXGV1yCGsjDXHNQGHpbYTR2tmWUg4nV5qZyxc/AQzupcmHMREMs+LSMSwpXtrWE0cD3xJKXgxclmbmeDDwnSyU/BPGH/tSL19ZUirm39Ol3M7JaxcQYZWW/m5hhVOsLubHFtuaNtWl3IuYw9P1mQt8zXe9gzNiWIcBszGBxlkxrA42wcRHzg70TBXf9Wb7rvdl4KuU3zVu16Xci8W2pgG6mN85Zbel4p/0fa5g2q3wp6HY1rhHsbVphdZOR2Wp5ZjrY8b6rvePWJSKgFByV6Hk48Ad2A+JqpbhwB1CyceDC75TxXe9+zEbHRMw9S7R2nml2Nr0UbGtcQ9dchqr6S+xsIH6XN1/RTsDi2uaBzr54t35pvaf+q63KAHNqkIoORSTRWw7Wj4OPge8KJS8DlNnMrXnGRSOvVwoeUuxrfGPupj/Zlq6QDSfK/2ZK8K0Wyo0FNI2LKFkk1ByPGY5czy1Z1gd5DD6zxVKjg8qIaWG73qLSoWGQq24LeV+MuBz5aL9pIhQ8hDM3WKXYTeBMkkGYP6eGcHflx4Z6BtR7CP93cK0l6UhEEqOwdT4O9iy6Fbs3VYyCviHUPIhzO7rbEty15KJvhFhlZaBmSvCstTywCCUHCiUvBIzW9k0rOWY8Ck3+K/NWwoPxsxiVwklB1qUm4m+UdszV8ryKyGoi3gcZvt6kEXRGrgOU8+ww7f8jVDyJswW/4+wU8ciD5wEfE8oeQ5wrY1SA5noG5Fmruq2wjO11WljYBBKHohJ5bgau4Y1Bdjdd73j19+08V1vke96xwG7B5+zxSDMc5gWPJdkyUDfiGIf9ZmrGyxEcXfHfExG9B29fdB3venAfkLJwzFBwcMS1q2DscCjQsl7MaUGXk9CSCb6RjSfK0fYn1iVz8jMJZTsL5SciImusGlYqzDZxGMqMazO+K43GRiDKT1WUe2PmPgGMEsoOVEoGf/1TBnoG1HsI/2ZKws7QqzNnD0Wk6ZvO3P2FkwwbejEyuA6oguEkjdgapB8Ly7leqEJk9JyjFDybGLM7M5E36j7XNEIbrWYirkMwaZhTQX29l3v6LguxPNd713f9Y7GlBiweUnG5pjnNzV4ntHJQN+IYh81HaER25rcIYfDFpjgXxu8h6kvsXdSV7kG7e4VyLGVXjIXhy1w4olSyUTfiGAfDak7jWnLZ+3yY+vgf33H0UNJptTAGswmyUU2Uu+DzOObhJJ3YYrxjCeZUgOLtXYWAYI4c52z0DciGGrd54L1X6LQ2ik6jn4x5lIDd2LuQ7adiUxQMPPnQWDuJCCuNJNWtDNTm6TF2AejzPSN0D5XDU+7CS5NO0oNrEE7L8cgYglwP2abPTV815vnu953gM9jaq6HRzsvl4r5NaVSbg+dwRT72CYNR38Q1j7qPhf09DduWirmd9GlXNRohMHADcCzQknbFxd0IbjEYHfM9baLq/z6PF3Mzy8V87ugnU039L7hOHpVWPuo7xbS+0ssFfMNxfZGdCmyn/4/wFNCyb8KJbfu9dMJEtQV/BOmruDllM/u7szSUjH/SrG9cUSplBu20axq6ruFUZWo7O8tFRootjXFIfcoYI5Q8lyhpM2LC7rgu96HvutNwERdPFDmIx0p9v11Mf/Jet+oZuaqYeXTGp2KrU0U2xqjPoO+mAvS/yuUPCK4hCI1fNeb47veIZgiMa8CaO3MKLY2La/FFPssGHj6M1eEaTfNl6iLeYprmikVIy8VtwFuA54USu4e/Y+Jhu96DwE7F9saLy2uad5Zl3KD630j7MxVw8pnYXQiuh/Wwb7AC0LJP8cW4RAS3/UKpULDsvqqJpqBp36InLZ8o0QUHWLV3wF+CHxHKHkhcIXverYuMFiXDLyXLPSNKDqkvizMxOgUYYTWyVRf748Jvp0llDw0EQm9UOubCVnon/WZC7I0c63P9sDdQslHMXUsZiYpbB0y8F6y0Dei6JB6+FPq8iGa/2jn3pCDgOlB2edzfdeLdoFBBWQm9ChtohhX2g8xhoPZGJSIoIN2StipVZjH3AziCSXPA65OtI5FymXrIBt9I4p91H0uovkXhbam3wH/jkWRyhiIud/qFaFkYhWo6j5XdB1SP0Su9ZeoCw0LfNc7APg2du/eGgM8KJS8Tyg5KvbWM9Cxs9A3osivz1zE8xJ917sL0+HPBlbEolhlfBWYKZT8jVAytqq/WejYWegbkWautJWv9VP4zs/Bd71W3/UuxgTD/gUsbXdAI+ZmkLlCyeODeiDRyEDHrvW+kfqycEN8ib7rLfBd71jMbY7PxKJkZQwB/gS8JJTcL0pDtd6xs7CqyelSjrA/aSufdQP3Xe95YB9MFHwsBWgqZBfgCaHkHULJ4aFaqPGOHZvPFcE+Ul8Wbugv0Xc97buexFxscD6mjoYtDsPcHnmhULKq2y2z0LGz0Ddqelm4sbxE3/VW+a53HrAjcHs8ildEH8wmyxyh5NEVp7ZkoGNnoW9EWham/QA3tpfou95bvusdCXwWeCmWP6AytgRuAp4RSu7V24ez0LGz0DeizVwpO60bq+Psu95/MGn/PwIWxvOHVMSeGAO7SSi5VbefykDHzkLfiCI/9ZkrCyNkWi8xqGNxPcYfmwTYTC85GrNU/Hm5UgOZ6NgZ6BvRZq4aVj4LU38cOviut9x3vTOAnYB7IzdYOS2YO8dmCSW/s86/1N+LUSGCfaQeFR/b0i6KDik/gw6Cq3gOFUoehLkWdqwl0cOByULJJ4FxvutNz8IzyULfiGIf9ZkrKzp0wne9R4HdgJ8BS2MX0D37YQ6gr3FypX6pP5MMvJfanrnqI2RZgnSSq4WSEjgPY2h5C6Id4Limfitb1yyLLVQxFFnoG1HsI/V8rrSNOzM6dIPvesuAcULJPwJXAl+0JLo59eeStnyiDbz1mSsjOvSG73qzgYOFkodg/LGRScrTpP9c0pZvlKj7XLWvQ4X4rnc/ZqNjArA8MUFZeCYZ0KG2fa60l6VkZISsgqDc2uVCyVuAXwPHkUClnLSfSxb6Rt3n2hB0CIHveouAnwgl/4Dxxz4XW+MpzMpldUiZus8VVYcoD7Bl9Y4xqhIK3/WmA/sHB8GTMOdWkdCkP3NkoW9E9bleT9fnykX7iUWH8Ov6xk1WHyOU/KdQckw8yoTHd707MKUGzgGiXQubAX8nC30jgs/VnkM7l6TqMNZ4DFvAlzDVmK4USg6MRamQ+K63xne9CzGpLTdHaSvtza4s9I0IA8zNufb/3eQ6rZ2fae18VN8tjKRDAzAOEwx7glCyIR7lwuG73ru+630f2AuYWnUDG857iaZC9QPLCq2dM7V2fpIDKJzUcjXaGYl2bkA7OuPKxz9CxivfBa7GhBEdEIuCEfBdbyqwNyYK/r1qvlvL7yWFwV+jnRvRzsjCSS0TCye1FNYuTAvj+i4sjOv7Q11yPqVLzlM1MO1mZITsttWdgceEkncLJbeLR9FwBKUGbsGktlxIJaUGNDX+XmIy8MqWoE/rkvPpwri+PyiM67ug47tdvL7iKX1eQjufRTtHop23N4qZK8ravncdDsXUsbhYKNk/FoVD4rveSt/1zsFsetzR02e1jvBMMuALW5q53kY7R6GdfYun9Hlh/a+W3VIpjm/WxfHNt2vt7Ki1c57Wzuoyyi+yoHz2R8jKaALOxNQVPDaWuoIR8F3vTd/1Dseci03v9oO1/F7iG/xXlen7q7V2ztfaGV0c3yyL45vLrl96fMmlCU2rSxOazkfnRqFzcr2tzitiUT4DO0KRRsfqXuLmwA3Ac0LJz8SifAR813sS2AM4Hli8zj9mYNbIQt9A565er9/fhs6NLk1oOq80oWlVT1+taEerdGrDO8BRzqTipZicn1f06fl4Lh+Ia5SrLR32AJ4SSt4GnOa73ju2FejAd70ScK1QcjLmfGwcpoJv+u8mbflA6dSG3zqTijMwtSCn6NPzL1b63aq2i/Xp+WnAtCr167nNDDzAKDpE1P9I4BtCyUnARN/1VkdpLAq+630InCaUvBb4jdbO19J+N2nL7yCYSKqeTDJwAVL66+qU5fcFfgn8VyjpVVxXMCF815vju97XWz8YcENNv5cMGGbqxpWFHaFI6/r4XuI2wK3AFKHkHnE1Gpa25f3mpu3vZKFvRCHVKAIA4nI8oxDlRcR/j8k+wPNCyRuBs33XW9DL55MhA50zE30jAqkbVxZGmEg+VzIXjjvAD4DDhJIXAlf6rteahKDuqPX3kgVSXxZmYl0dSYd4VOiG/sAlmLqChyYqaX1q/r2kb5j1mSuyDlb03w64Wyj5GHCK73ozkhZY++8lfeozV0QdtHZsXgl0IDBNKHm1UHJwopJq/L1kYeZK3biycAofRf6Kd7a4DPgjUIxFmd7JAycArwklxyWV2lLr7yW2CI0IpG5cVJPiksERstTWuNJ3vRMwFXLjiVqpjM0wdTNmCCUPjr31LMwa0XSwdR91t6RuXFo7bVo7K1M95wopu7MOvuvN8F3vAOCbwLxYFKuM0cCDQsn7hZKj4mo0C2dMEeSv0tqxeWNMWVI3rvYT+5XQzqQaHiHXacp3vXswKR1nASviUbAivgLMFEpeLpSMXoe6tmeuie0n9ivFo0R4UjcuAK2dX2vtjNcmRdr+KXzMHcl3vVbf9S7BVMW9ERLesP+YRuAUTGrLTyKltmTAuELMWCuDfvTrWBSISCaMq3BSiy6c1HIF2tkR7fyFDaTUgO96C3zX+wHwaeDpWJStjCGYTZaXhJL7h2kgC8vCKg36JrQzqnBSyxWFk1pS97cgI8bVQWFc3/cK4/oeq0u5vXQp94wu5ejtJxYSHqV913sB2Bc4Cng/HqUrYhfg30LJO4SSI6r6ZhZmrgrevy7lntWl3J6FcX2PKYzrW1WNkKTJlHF1UDyl+Tm0sw/a+S7aeTf5l2hly7cF44sNjEXp6jgMU2rgQqFkv0q+kIlt8J4N+F208z2085niKc3PxSMwXlKP0OiO4vgmDdyau6z9HuAM4HSgz3of+zAWYXEtY8oQpJAchamEu2VignqnGTgbOFYoeRZws+963S+fEnwmlaK1s6zMr9cAlwITSxMaoxU+TZhMzlydKU1oXFWa0PjLwB+b3GnkakM7N8QhIyn/Qij5aeAZ4BbSNazObAn8BXhWKLlXdx/KiM91Q/CeO975ZLQzpjSh8dysGxZkeOZan9KpDW8BRziTihdifImn9On5N2JpPOZRWii5JXAx8P1YG46XTwPPCCX/Cpzhu9676/xrBmau0qkNzzqTimMwaTgv69Pzr6StUzXUjHF1EDzgWB9yXCOtULIPMB6z/NoklkaT57vAN4WSFwOXdZQaiG32iUgwgMYziFom88tCG1S4K9XjjqVQ8jBgNqboZq0YVgctmHu+ZgslD4d4nsnGTv0pQKQt56Z+Kz8hlHwcU2RzeLp/SGSGAbcLJZ9s6r9yy7S34mudmlsWJkGUJdAmWy08EUtJXRb57CZbLty39cNUCwTXPPWZC6IeltoyrCLwAPZSW5z6zBWNunER8cDUTkd6GNjFd71DMBc8PJi0QK0zcIhc49SXhRBtpE02im0uMMF3vfs6fuG73mzgy0LJQ4DLMTeXxE/HLSd1QlOfuYh2YJrQqnA5cBowtrNhdcZ3vfsxs9gE4opUWYcMHCLXOPWZC7I0c2ngz8DPfdfr9RYZ3/XagMuFkrdgttJ/TFwDZn3mikzduIi2Wxhj3cIpwEm+602v9ouBIf5EKHk1cBXmaqBIaOozUFTqxgWgnfbw340sfT7mppMeL6OrBN/1Xgb2Dw60LyXKuVu0masQWu4GRN3nAnTJWaLN1ZvV74qF74CrgF8AY+IwrM74rncnJr3l50C4ANfwu4XP6pKzJM6/p1apGxfQfmI/jXYORDvnOI4uWDjPuQUY5bveBUldG+S73hrf9S7C7CbeFKqRKp6D4+gi2jkX7Xw+C/UrskB9Ub0eA+9+bXSxvfH+VQuGVHRJuLvLLAaLuZU2PxU42Xe9Z0MrGJIg/eW3wJ6VfH6JPxL18k4Vtd2yxeJ5DX1av7r066NmRVBxg6M+c63Hsm/u8Oryw4dtP3DHN45r3vSjFb3PXBWNT+8BxwB7p2FYAL7rPQfsDXwv0KcXep+tmjf9aOXAHd84bvnhw7arG1ZX6jNXD2z+r+m5wqq+V694Z4sfF9Y058t9ZsiuPoPHzumuiTWYg96LfdezWWatR4SSm2Cyu0+ja3Y3AEtmjmLxdFH2+w19Wov9tl5wfUPL6p8uPGDX+hKwG+rGVQGbPzZ9aOsHA+5a8e4W++jiujY2ZDefwWP/W+5rdwKn+65ns0BoVQglhwMTgcPX/7clM3dk8bR1jcvJl+i31ftPNw1Y8a1FX/jkQjta1i5146qCIQ/N2He1GiRXLRiydcfvhu4+k8E7r2NcLwPjfNd7wrqCIRFK7ocpjb1bx++WzNiRRS+NXfuZli0Wv9vXXXrU4oN3ftK+hrVJ3eeqgsUH7/yfFd/daptBo18/qWnAitXr7RguBn4K7F5LhgXgu96TwKeA4wETGRL8bU0DVqwZNPr1U1Z8d6ut64ZVHfWZKyRDH3mloX1ly/XNAz/82mAx53rgV77rJRDjZxeh5ADgF0v8UT9uXbrp/X2HLvnBe/vsGf6QfSPG0ToTxUnr1Nng+P9ScDeBk0bXEQAAAABJRU5ErkJggg==;fontSize=10;" vertex="1" parent="1">
          <mxGeometry x="70" y="857" width="32.26" height="30" as="geometry" />
        </mxCell>
        <mxCell id="VgT5aje4Y89rEEMWAGqi-11" value="Linkerd Control Plane" style="shape=image;imageAspect=0;aspect=fixed;verticalLabelPosition=bottom;verticalAlign=top;image=data:image/png,iVBORw0KGgoAAAANSUhEUgAAANcAAADICAYAAAB7/XT7AAAACXBIWXMAAAsTAAALEwEAmpwYAAAFFmlUWHRYTUw6Y29tLmFkb2JlLnhtcAAAAAAAPD94cGFja2V0IGJlZ2luPSLvu78iIGlkPSJXNU0wTXBDZWhpSHpyZVN6TlRjemtjOWQiPz4gPHg6eG1wbWV0YSB4bWxuczp4PSJhZG9iZTpuczptZXRhLyIgeDp4bXB0az0iQWRvYmUgWE1QIENvcmUgNS42LWMxNDAgNzkuMTYwNDUxLCAyMDE3LzA1LzA2LTAxOjA4OjIxICAgICAgICAiPiA8cmRmOlJERiB4bWxuczpyZGY9Imh0dHA6Ly93d3cudzMub3JnLzE5OTkvMDIvMjItcmRmLXN5bnRheC1ucyMiPiA8cmRmOkRlc2NyaXB0aW9uIHJkZjphYm91dD0iIiB4bWxuczp4bXA9Imh0dHA6Ly9ucy5hZG9iZS5jb20veGFwLzEuMC8iIHhtbG5zOmRjPSJodHRwOi8vcHVybC5vcmcvZGMvZWxlbWVudHMvMS4xLyIgeG1sbnM6cGhvdG9zaG9wPSJodHRwOi8vbnMuYWRvYmUuY29tL3Bob3Rvc2hvcC8xLjAvIiB4bWxuczp4bXBNTT0iaHR0cDovL25zLmFkb2JlLmNvbS94YXAvMS4wL21tLyIgeG1sbnM6c3RFdnQ9Imh0dHA6Ly9ucy5hZG9iZS5jb20veGFwLzEuMC9zVHlwZS9SZXNvdXJjZUV2ZW50IyIgeG1wOkNyZWF0b3JUb29sPSJBZG9iZSBQaG90b3Nob3AgQ0MgKE1hY2ludG9zaCkiIHhtcDpDcmVhdGVEYXRlPSIyMDE3LTEyLTA4VDExOjEwOjMwLTA4OjAwIiB4bXA6TW9kaWZ5RGF0ZT0iMjAxNy0xMi0wOFQxMToxNzoyMi0wODowMCIgeG1wOk1ldGFkYXRhRGF0ZT0iMjAxNy0xMi0wOFQxMToxNzoyMi0wODowMCIgZGM6Zm9ybWF0PSJpbWFnZS9wbmciIHBob3Rvc2hvcDpDb2xvck1vZGU9IjMiIHBob3Rvc2hvcDpJQ0NQcm9maWxlPSJzUkdCIElFQzYxOTY2LTIuMSIgeG1wTU06SW5zdGFuY2VJRD0ieG1wLmlpZDozZGI0ZTZhYi05N2UwLTQ5NGMtYTE2OC0yMjAwZDgwMTkxYjciIHhtcE1NOkRvY3VtZW50SUQ9InhtcC5kaWQ6M2RiNGU2YWItOTdlMC00OTRjLWExNjgtMjIwMGQ4MDE5MWI3IiB4bXBNTTpPcmlnaW5hbERvY3VtZW50SUQ9InhtcC5kaWQ6M2RiNGU2YWItOTdlMC00OTRjLWExNjgtMjIwMGQ4MDE5MWI3Ij4gPHhtcE1NOkhpc3Rvcnk+IDxyZGY6U2VxPiA8cmRmOmxpIHN0RXZ0OmFjdGlvbj0iY3JlYXRlZCIgc3RFdnQ6aW5zdGFuY2VJRD0ieG1wLmlpZDozZGI0ZTZhYi05N2UwLTQ5NGMtYTE2OC0yMjAwZDgwMTkxYjciIHN0RXZ0OndoZW49IjIwMTctMTItMDhUMTE6MTA6MzAtMDg6MDAiIHN0RXZ0OnNvZnR3YXJlQWdlbnQ9IkFkb2JlIFBob3Rvc2hvcCBDQyAoTWFjaW50b3NoKSIvPiA8L3JkZjpTZXE+IDwveG1wTU06SGlzdG9yeT4gPC9yZGY6RGVzY3JpcHRpb24+IDwvcmRmOlJERj4gPC94OnhtcG1ldGE+IDw/eHBhY2tldCBlbmQ9InIiPz4WxorCAAAqQElEQVR4nO2deZhUxdW439s9C4yAAhc0boAKgoVxyxc1GmPUxCRmMYlRr4nRLJr4i58ouMcYTdzAuOVLTKJGjRpL0bjEaFwTlbjgBgoXDKiIK0sBimwz0931+6Pu4MD0zHTfpe5t6Pd55vFx6K5z5t46VXWqzjnlUKdqhJIOcDRwGiCA94HrgEm+661MU7coCCVbgAnA8cCWgA9cCtziu55OU7daxElbgVpDKLk3cBXwP2X++T3gLODmWuqMwWBxJDAR2KbMR54HTvJd71mritU4deOqEKHkVsAk4KgKPj4VOLkWOqNQ8lOYweIzFXz8VuB03/XeTVarDYO6cfWCULIvZvl3BtBS5ddvBs7KYmcUSm4BXAwcQ3X9YBVmhrvUd73VSei2oVA3rm4IlkqHYzrSsAhNrQIuAi7PQmcUSjYDJwPnAP0iNDUfM+BMrqUlsE3qxlUGoeTuwJXAZ2Nsdj5wmu96d8TYZlUIJQ8FLgdGxNjsFMwS+KUY29wgqBvXeggljwX+DOQSEvEkMM53vekJtd8FoeTOGL/q8wmJKAE/8l3vxoTar0nqxrUeQsl3gK0SFqMxW/fn+K63KCkhQsnBwAXAcUA+KTkBC3zX+0TCMmqKpEbnWqbZggwH0+HnCiVPFUo2xdm4ULJBKHky8BrwU5I3LIA+FmTUFHXj6spEi7IGYA5pZwolvxZHg0LJLwMzgCuAzeJos0ImWZRVE9SXhWUQSn4Fs6Ex0rLoh4FTfNebVe0XhZI7YjYrvhK7Vj3zOjDBd717LcvNPHXj6oZgqXYi8EvMDGOLInA1cJ7vekt7+7BQcjPgXIyujcmqtg4fARcCV/qu12pRbs1QN65eEEoOBX4N/Bi7y+ilGKP5k+96hTJ65QOdfg0MsaiXBm4EzvZdb4FFuTVH3bgqRCi5K2ap+DnLon3MUvGRTrrsj9la/6RlXZ7CHCO8aFluTVI3rioRSn4H47wPtyz6Xoxxnwh827Lst4HTgdvr0RiVUzeuEAgl+2BSM84CNklZnSRZjRlIJmYhdKvWqBtXBISSWwKXYHK7NjRuw4RrvZO2IrVK3bhiQCi5J8YH2jNtXWLgBYxf9XTaitQ6NX2ILJQcHER5p4rvelOBvTEz2HspqxOWhcAPgD2zYFhCySah5MC09YhCzc1cQSrIUZht6lFAAbgT+Lnvem+kqRuAUHIT4EzgVGojJKgNc/h8ke96H6WtjFByBCYe8nCgAZgD/Aq4tdY2U2rKuISSnwZ+S/nlV9Y6yXBMKNXhKavSE3cDp2ZkUOoH/Bw4hfLxnVMxpQaes6pYBGrCuKrcOFiImTlu8l2vlKhiFSCU3A/jj+2asiqdmYHJwfpX2ooEK5HvY7KiK4mqvxk403e9zC+/M21cwZb3eOBsqt/yzoxjLpTMAT/CLHeGpqiKwiynry0X9WGbXor99MRKjDFe5rvemtgVi4nMGpdQ8jBMxPjwiE1lZktZKLkpJr1+HHbjAMFkQu/tu977luV2QSi5NWbJXEmxn554E1MwJ7Xs7p7InHElFGaUqcNQoeRI4DIgljSTKpiH8bHusiwXiFzspyeewCxzp8fYZmQyZVxBTtPfSG5Uz1QYj1DyYMwmzE6WRT+OWTK/YkNYjMV+eqIAfMt3vfsSar9qsnbOdSrJLpe2ASQwRSi5R4JyKsJ3vYeAXYCTgGUWRe8PTBNK/lEomWhEfVDs5wnM8jwpwwKzbX9agu1XTdZmrn9jXrwNMpU6IZQchDnPsZWW38GHwHnA733Xa4+rUaHk5ph8rx9ir5894bve/pZk9UrWjOsLwH3YqWPRQaaS/oSSAuNzHmRZ9ByM3/LPKI0ESabjgF8A/eNQrEJaga/7rvewRZk9kinjgtTT1U/1Xe8ey3LLIpT8OuY5bG9Z9IOY/LFXq/1iLeqcJJkzrg6CQiuXA6Mti34M86JmWJbbhRRngQLwe0ypgQ96+3DKs+0pvus9YFluRWTWuMCUCOPjOhabWRRdBK4BfuG73hKLcsuSkv8CHx86X+O7XrGMXmn6iecDv4vTT4ybTBtXB0JJF1MrwkZxy858gDHsqzMS0ZBEme1KWCdcKhj0TsB0cJuR6yXgWsygt9ii3FDUhHF1YKEsc3e8iulcD1mW2wVLZ0bdcTcwGbNMtX029wQmcNfK2Vwc1JRxdZDQhQKV8ABmjT/HstwuJBjtkDXexNRFTCWqJAo1aVyw9iqcUzBpClGuwqmWduD/gF/5rvehRblliTFOL2uswFy9dEWWg3N7omaNq4MIl7hFZTFmeXRtRlJbwkaYZ5G/YA73M59W0hOhOmOwS/QHzHU4ZYtW2qbK60fj5GWMP/a4ZbldCJEblTWewTzL1BMig02bn2I2j06opPrx+lRlXEFe0lWYnaKOXbtZmAfySLdftESni7MnAVtbFn8nJv1hnmW5XaggqzdrvIvxHTORyh9ECl3Jx5s2ReCPmA2VilcpFRuXULcdDfr3dH+YeR8w3ne91yptMymEki2Y6PfTgb4WRbdiUkku9l1vhUW5ZQnqUfwG+FbaunTDGkzO3iW+661KWxmh5A6YjbLuUoE+AudE3z3ypkra69W4xOLbPgnchaMrCWlpx1j8Bb7rLa9EgSQRSm6LcfaPtCz6PUzB0JszMhLvTzrlr3tiMmamn5+2IkLJARj/ubIkVu28BhzmDzny5Z4+1q1x7bT49gGgJzuO/mJPn+uGRZhlyfUZcfb3wXQu22kmz2Hypp61LLcLnS5uuABwU1RlGuaZTElRByBy+QWttfMw2jli1tAjyu4alzWanRbdPtHJlcZjcmSiMA3jjz0ZsZ3IBA/yGIyzv7ll8X8FzvBd713LcrvQ6cqh/yX6+62Wp4GDMpINvh9mlbVbxKYKupS7fNbQI85Y/x/WMa6dFt1+GI6+xnF03CEtkzGd682Y260aoWR/TB2Lk4FYr0vthVV8XFQlC51ro8w+SKrkndbOMrRz/KyhR9zZ8TsHYKeFk0fj6L85uVKSIS0dzutE3/VWJiinIoSS22E61zcsi56P8TUmW5Zblo0l+yAo1noGJqolsWKtupSbhXa+PWvzw191dlo4+S4nXzwUewewWdt2PQDjj421LHoKxveYZlluF4SSjcDPSCf74E/AuUllH3Sq0DwJ2DIJGWXQupi/xxn97t90rrGAk7O+7/AspnNl5cDwOIxjO8iiaA38GVOKe5FFuWXZ0LIPggrNVwF7xdVmJehSjlJ7A86ot+7RALmGAvnGAjjWJ5ObgLOyEOoSFP7/JSaHzGbnWo4x7Kt812uzKLcstZ59EFRovhgTrWIP7VBsb6BUMPtEzqj5935sTY4m31gg12g9/2wlJhkwE0GaQskxGD/kS5ZFz8U4+3+3LLcsQslvYg7FbWcf3I8JSKgq+yBiheZIlNobKbY3gP7Yu3JGvfn3LlOVkyuRa2oj19Al+TRp3sR0rr/ZFlwOoeQhGCMbZVn0w5jO5VuW24VayT4QSn4bE40yPGG91qFUyFNqa0KXulYpdEbOu6/bdWCuoUi+uTUNf+wJjD/W4wm4DYI6FidizoY2tSi6CFyNqWNRddBo3GQ1+0AouQtmCWv1InhdylFsbaZU6N57cEa+8Y9enax8Uzv55lbb/lgJuA44Jwsp3ULJoRhn/8fYLaa6DNO56tkHZsB9ItAjnfehHYqtzRTbeo+ScnZ4/f7KLMbRNPRpJd9k3d/+EFME5f+yUIwkrZGSevZBB3cCL2KuibK5kqDY1kRhTfM6flVPODu89kBV05GTL9LQdw25BuuD6ByMH3K/bcHliPEWlmr5OybtfWPOPrBKqdBAYXUfdLG6DWRn+zn/DLXWyze1q8Z+K5cBI8N8PwIPYoxstmW5XUhxd6qefWCHue0rNhlYbGsMFejsbD/nwbCO1Nt9Bi3bAROmfw4wIGQ7YegoWnm+73o2LzAoS2rnKvXsg6RYjvHnfrtmycDXMBd4VI2z3asPhTauN0YfvC2sLVp5ASZ83+ZO0hI+3knKgrPf053NSZK1NI5jMcVlbGcfRKVLxMx2rz70FqGNa/bD4Y1rzBe37fwLoeRumJHLdtHKmZjOlZU7fm3HsnWQpQTEtLIPwjIFk8Y/vfMvt5v9cHjjGjHrkdDGNW+nL2xb7h+EkodjOpftopX3YvyxLNxObyUKuwz17IPqmI+51rfs1a8jZj0Swbj8R8MblziorHHB2qKVEzDp7jaLVrYBVwAX+q73kUW5ZUkqf6gCspZ9cCBmE8Z29kF3VJRfN8J/NLxxDZ/5WGjjenPsgd0aVwdCya0wneu7IeWEZSHGsP+SEWc/rszXaqlnH3TlFuDMSjLDh898LLRx5dAOoX8qIPgDjgVuDqNgBDYHrgeeC3axUiUodfAp4HjMLp8t9gKmCiVvDHY1U8N3vYLven8AdsD45taDV4FbgR9VXHIhgn04w175d+iZa/4nP1/JzJVWpuv63IZx9t9OWY/qqw3FRxazD64ADrYsei7mIL7Xy8mHvfLv8MvCYS8/Ht64dtm/J58rrRoNPbEas9EyKSN18kZiUjq6q5OXFG9Szz6ACrIPhr38eHjj2nbaE6GN663dPtfFuFKuLlQpb2Oc/dsy4ux/ETOCb7TX8mQ1+2DbaU9EMK6XngxvXLvvt9a4MlQXrxqexjj7L6StSKfa5L/C/oVy9ewDWIox7HWyD7Z96cnwxrXNi1NCG9fbe3y2I0Jjf7JX0bVSNHAj5laNBSnrkvZVqFnKPtgVs7tqO/vAx1SlegRgmxenRDCuF/4T2rgGDH/7c2S7Fnk1rMDMulf6rteatjLBJd5XAF+wLDpTl3innX2w/M1t/kVo43r+qaqNy8lpmgd+sLxpwEfN1MYtGtUwD+Pk3pO2IgBCya9jNj12sCy6nn0A7W3L+69pXbZp/3Jp/L3hbP1cdcbV1H8lfQZ9gJNP44jCKv/CJCdaKVrZE4GzPw6zfd/dLTNJkMXsg0uAo23K1cU8a5ZuSttH1ZUQcbae+nRFxpXv00pfdyn5ZuuZyC9gwqh2A87DftHKazHOfiJFK6uhnn1gSCv7oNjaxBo1yGQjV4Cz1bPP9GhcuYYCfQYvo6m/9RjQBZjwpZs6wpeEkoMxO0nHY79o5fnA7zLSuXbHOPu2sw9mYGbzjTr7oH3FJqxWA9fWJ+wOZ6tnni1rXI6jaR74Ic2DPsCxW5imDXOgeFF3gbdB0corgANtKoYpWjned71/WpZbFqHkEZi4TdvZB/dgIhyykn1wJnAqFrMPtHZoXbYprUs3Q3cTCuhs+dTULpbT1H8FfYcsJddofZC+GxM5UNFLE0oeinH2t0tSqTI8gDGy/1qW24Ug++A0zKF4PfvAcvZBqdDA6sWDaFve1R9ztvzPc2uNK9+nlZahioYW62FnoZcbQdHKkzHp7jad/Xbgd5iilR9YlFuWIPtgEmapZJOFmJlj7fI9TdLKPiis7sPqhe46/pjziSnP61xDkb5DltC8mfVaJwpzKn6N73qRth+DopUXYSLw0yhaeV3UvyEOhJJ7YZz9/7Es+kVMKNXTluV2IeKNkZFo/bA/qxcNplRowBnhP6L7Dllqu6puxxbveXGP+kLJPTDRIrbTTF7BhFI9blluFwJn/2jMtvUnLIvPUvbBpphSA1azD3Qpx2o1CGfMgju0LuVsFvt8EBMB8GpSAjoVrZxIyNP1CPwNkzY+z7LcLggl+2EOXsdj97C/I/tgYkZu0bSafVBsa8LJlXB2WnybBii1NuE0FJMs9jkH41dZ22kLnP0zsF+0spWPdzxXWJRbFqHkCEwI0bcti96osg9KhTylQsPas2Bnp0W3r/NHF1ubyPdpjXP7/UPM4e/v0woIFUpujelctotWvs/HZ3VZ6Fz7Y5z9XSyLfgozsGYl++AEzLllLNkHWjsU1zR3CbBwxiyc3OWl65KDLjTQ0DfSrmEJE93wi4ykMmyOqTO+bwrin8c4+8+mIHsdOqUG/RoYYlH0Bpl9UFjdB6ehgJPrOnY6Yxbc0e2IWio04DilMCFPj2Oc+6wk4aURl1eOWzHOfmX1GxKkU1LridgtNbBBZB8UW5vQOtejG+WMfv/OXpcrpfZG8k2tlVyGNw9zCHxXNYomRRBRfjmwfdq6dGIVZqPl0ow4+2mVY3gDE+Vxj2W5Zak0+6BUyFNsa67o9lVn9Ht/q8wX0MbIGjdZVe6erhWYM6asFD4RGN/ioJRV6Yn5wBm+692etiIAQskvYUZw24WEaiP7QDu0r2wxUUsV7kc4O75zV3WOdimHBhpbVoNZR3dcGP5+Ve0kQIpZvFGYgulcL6WtSODsn4i5dH0zi6IznX3QvqovjgM41Z0FOzu+fXeoXSxdzBUa+63aJ0PFJmPdAbJMxwUA5/iutzBtZYLsgwswBTxtZx+ch9lZzkT2Qdvyfs/kGguhat07o966J/QW8ZxtD7UZZlQWoeTBGJ/BduWkJPgIs4t3le961hPn1ifIPrgSOMCy6FcxgQYPWpbbhR3e+Ech19DDxcc94Iyaf2944xr2jdSMSyg5ClO/w3bNPxu8jom6/3vaisDa7IPLgRGWRaeefbDD6/eHN66Rb/49tHHNHf5168aVVrxYSjyCGcG7LVppi07ZB+cA1eW7R6Mj++B83/U+tCgXgO1feyCCcc27L7xxjfiaNePqFOl8IfYPP2/CnAl9G+Ps2y5a+Ufg3HJFK22zsWUfbD/3n+GNa4fX7w9tXK9tf4iVhxvk6FwF7GpDXieewezkrd20EUoOwTj7totWLsMY9h8y4ux/CvNOPmNZ9MuYd/K4DWHb/fehCMb12gPhjWuHryRqXEF26STgO0nKKcO7mGBf2V1MoFDyk5i8KdtFK2dhlooPW5bbhY0h+2C7Vx8Ob1zbz/1naON6feSXEzGuoC7CWZiqT7ZvZexIlajoogah5LcwJ/vDE9SrHPdhIhzmWpbbBaFkC2YwSiP74DLg4qSyD0bMfiSCcc15MLxxjfpSrMYVjITfwyT5pXGf8Gm+671V7ReDopWnYEoNWC1aiVmaXZCGs78+QsltMINTGtkHZwI3x519MGLWo+GNa7tXHwqtzBujD47NuIL09CuxXIsOmIaJWP9P1IaCopUXAcdE1qo6FmF28f6ckToW+2CMfg/LomPPPhg+87EIxjX74fDGNeaLkY0rGPWvwXIVVUyHPAu4Me4OGRStvBLYO852K2Aaxtl/0rLcLgS7u8dg7h3e3LL4vwI/jiPOdfiMf4U2rpzWDmF/YsHBweFATKayDdowS5eRvutdn8RIH+wu7oNZ4tpML9kNeEIoeXuwGZQavuuVfNe7ARiJ2fCwFXEyB4f9ceI5JohiH84I/9HQM9c8cVDkP2Cnxbf1xaRhAMxyHD2E5M6x7sWkxLyWUPtdCJz9MzG1BW1vzvwGuMR3PevlktdHKLkdJsrjGwmJWKy1s5iPw+BaZg05MnJKz7CXHw+/LBw+87HQxvXm2AOjG9ei2zsbF0DRcfR0HD2W+IqqzMSE0TwSU3tVI5QchpkxrRatBN7D7OLdmpFSAwdg/LGxMTXZinZ8rZ1dWDfIuGXW0CMiG9e2058IvyyMclt5HJSZTvOlUm6PUjHfinamR2x+KSaFYrc0DQvAd735mG1j21WhtgRuAZ4JfMFUCQq/7gb8P8wFD+HRzvRSMd9aKuV219rJJ+K2RLCPBl1KObC9+4cwoFTM7+o4+i0nX2ynumzijntuf5mhq28uBr6fohp7AlOFkjcDZ/qu915aigQRJn8QSt6GiTo5kepSW97QxXyD1s6uSejXGV1yCGsjDXHNQGHpbYTR2tmWUg4nV5qZyxc/AQzupcmHMREMs+LSMSwpXtrWE0cD3xJKXgxclmbmeDDwnSyU/BPGH/tSL19ZUirm39Ol3M7JaxcQYZWW/m5hhVOsLubHFtuaNtWl3IuYw9P1mQt8zXe9gzNiWIcBszGBxlkxrA42wcRHzg70TBXf9Wb7rvdl4KuU3zVu16Xci8W2pgG6mN85Zbel4p/0fa5g2q3wp6HY1rhHsbVphdZOR2Wp5ZjrY8b6rvePWJSKgFByV6Hk48Ad2A+JqpbhwB1CyceDC75TxXe9+zEbHRMw9S7R2nml2Nr0UbGtcQ9dchqr6S+xsIH6XN1/RTsDi2uaBzr54t35pvaf+q63KAHNqkIoORSTRWw7Wj4OPge8KJS8DlNnMrXnGRSOvVwoeUuxrfGPupj/Zlq6QDSfK/2ZK8K0Wyo0FNI2LKFkk1ByPGY5czy1Z1gd5DD6zxVKjg8qIaWG73qLSoWGQq24LeV+MuBz5aL9pIhQ8hDM3WKXYTeBMkkGYP6eGcHflx4Z6BtR7CP93cK0l6UhEEqOwdT4O9iy6Fbs3VYyCviHUPIhzO7rbEty15KJvhFhlZaBmSvCstTywCCUHCiUvBIzW9k0rOWY8Ck3+K/NWwoPxsxiVwklB1qUm4m+UdszV8ryKyGoi3gcZvt6kEXRGrgOU8+ww7f8jVDyJswW/4+wU8ciD5wEfE8oeQ5wrY1SA5noG5Fmruq2wjO11WljYBBKHohJ5bgau4Y1Bdjdd73j19+08V1vke96xwG7B5+zxSDMc5gWPJdkyUDfiGIf9ZmrGyxEcXfHfExG9B29fdB3venAfkLJwzFBwcMS1q2DscCjQsl7MaUGXk9CSCb6RjSfK0fYn1iVz8jMJZTsL5SciImusGlYqzDZxGMqMazO+K43GRiDKT1WUe2PmPgGMEsoOVEoGf/1TBnoG1HsI/2ZKws7QqzNnD0Wk6ZvO3P2FkwwbejEyuA6oguEkjdgapB8Ly7leqEJk9JyjFDybGLM7M5E36j7XNEIbrWYirkMwaZhTQX29l3v6LguxPNd713f9Y7GlBiweUnG5pjnNzV4ntHJQN+IYh81HaER25rcIYfDFpjgXxu8h6kvsXdSV7kG7e4VyLGVXjIXhy1w4olSyUTfiGAfDak7jWnLZ+3yY+vgf33H0UNJptTAGswmyUU2Uu+DzOObhJJ3YYrxjCeZUgOLtXYWAYI4c52z0DciGGrd54L1X6LQ2ik6jn4x5lIDd2LuQ7adiUxQMPPnQWDuJCCuNJNWtDNTm6TF2AejzPSN0D5XDU+7CS5NO0oNrEE7L8cgYglwP2abPTV815vnu953gM9jaq6HRzsvl4r5NaVSbg+dwRT72CYNR38Q1j7qPhf09DduWirmd9GlXNRohMHADcCzQknbFxd0IbjEYHfM9baLq/z6PF3Mzy8V87ugnU039L7hOHpVWPuo7xbS+0ssFfMNxfZGdCmyn/4/wFNCyb8KJbfu9dMJEtQV/BOmruDllM/u7szSUjH/SrG9cUSplBu20axq6ruFUZWo7O8tFRootjXFIfcoYI5Q8lyhpM2LC7rgu96HvutNwERdPFDmIx0p9v11Mf/Jet+oZuaqYeXTGp2KrU0U2xqjPoO+mAvS/yuUPCK4hCI1fNeb47veIZgiMa8CaO3MKLY2La/FFPssGHj6M1eEaTfNl6iLeYprmikVIy8VtwFuA54USu4e/Y+Jhu96DwE7F9saLy2uad5Zl3KD630j7MxVw8pnYXQiuh/Wwb7AC0LJP8cW4RAS3/UKpULDsvqqJpqBp36InLZ8o0QUHWLV3wF+CHxHKHkhcIXverYuMFiXDLyXLPSNKDqkvizMxOgUYYTWyVRf748Jvp0llDw0EQm9UOubCVnon/WZC7I0c63P9sDdQslHMXUsZiYpbB0y8F6y0Dei6JB6+FPq8iGa/2jn3pCDgOlB2edzfdeLdoFBBWQm9ChtohhX2g8xhoPZGJSIoIN2StipVZjH3AziCSXPA65OtI5FymXrIBt9I4p91H0uovkXhbam3wH/jkWRyhiIud/qFaFkYhWo6j5XdB1SP0Su9ZeoCw0LfNc7APg2du/eGgM8KJS8Tyg5KvbWM9Cxs9A3osivz1zE8xJ917sL0+HPBlbEolhlfBWYKZT8jVAytqq/WejYWegbkWautJWv9VP4zs/Bd71W3/UuxgTD/gUsbXdAI+ZmkLlCyeODeiDRyEDHrvW+kfqycEN8ib7rLfBd71jMbY7PxKJkZQwB/gS8JJTcL0pDtd6xs7CqyelSjrA/aSufdQP3Xe95YB9MFHwsBWgqZBfgCaHkHULJ4aFaqPGOHZvPFcE+Ul8Wbugv0Xc97buexFxscD6mjoYtDsPcHnmhULKq2y2z0LGz0Ddqelm4sbxE3/VW+a53HrAjcHs8ildEH8wmyxyh5NEVp7ZkoGNnoW9EWham/QA3tpfou95bvusdCXwWeCmWP6AytgRuAp4RSu7V24ez0LGz0DeizVwpO60bq+Psu95/MGn/PwIWxvOHVMSeGAO7SSi5VbefykDHzkLfiCI/9ZkrCyNkWi8xqGNxPcYfmwTYTC85GrNU/Hm5UgOZ6NgZ6BvRZq4aVj4LU38cOviut9x3vTOAnYB7IzdYOS2YO8dmCSW/s86/1N+LUSGCfaQeFR/b0i6KDik/gw6Cq3gOFUoehLkWdqwl0cOByULJJ4FxvutNz8IzyULfiGIf9ZkrKzp0wne9R4HdgJ8BS2MX0D37YQ6gr3FypX6pP5MMvJfanrnqI2RZgnSSq4WSEjgPY2h5C6Id4Limfitb1yyLLVQxFFnoG1HsI/V8rrSNOzM6dIPvesuAcULJPwJXAl+0JLo59eeStnyiDbz1mSsjOvSG73qzgYOFkodg/LGRScrTpP9c0pZvlKj7XLWvQ4X4rnc/ZqNjArA8MUFZeCYZ0KG2fa60l6VkZISsgqDc2uVCyVuAXwPHkUClnLSfSxb6Rt3n2hB0CIHveouAnwgl/4Dxxz4XW+MpzMpldUiZus8VVYcoD7Bl9Y4xqhIK3/WmA/sHB8GTMOdWkdCkP3NkoW9E9bleT9fnykX7iUWH8Ov6xk1WHyOU/KdQckw8yoTHd707MKUGzgGiXQubAX8nC30jgs/VnkM7l6TqMNZ4DFvAlzDVmK4USg6MRamQ+K63xne9CzGpLTdHaSvtza4s9I0IA8zNufb/3eQ6rZ2fae18VN8tjKRDAzAOEwx7glCyIR7lwuG73ru+630f2AuYWnUDG857iaZC9QPLCq2dM7V2fpIDKJzUcjXaGYl2bkA7OuPKxz9CxivfBa7GhBEdEIuCEfBdbyqwNyYK/r1qvlvL7yWFwV+jnRvRzsjCSS0TCye1FNYuTAvj+i4sjOv7Q11yPqVLzlM1MO1mZITsttWdgceEkncLJbeLR9FwBKUGbsGktlxIJaUGNDX+XmIy8MqWoE/rkvPpwri+PyiM67ug47tdvL7iKX1eQjufRTtHop23N4qZK8ravncdDsXUsbhYKNk/FoVD4rveSt/1zsFsetzR02e1jvBMMuALW5q53kY7R6GdfYun9Hlh/a+W3VIpjm/WxfHNt2vt7Ki1c57Wzuoyyi+yoHz2R8jKaALOxNQVPDaWuoIR8F3vTd/1Dseci03v9oO1/F7iG/xXlen7q7V2ztfaGV0c3yyL45vLrl96fMmlCU2rSxOazkfnRqFzcr2tzitiUT4DO0KRRsfqXuLmwA3Ac0LJz8SifAR813sS2AM4Hli8zj9mYNbIQt9A565er9/fhs6NLk1oOq80oWlVT1+taEerdGrDO8BRzqTipZicn1f06fl4Lh+Ia5SrLR32AJ4SSt4GnOa73ju2FejAd70ScK1QcjLmfGwcpoJv+u8mbflA6dSG3zqTijMwtSCn6NPzL1b63aq2i/Xp+WnAtCr167nNDDzAKDpE1P9I4BtCyUnARN/1VkdpLAq+630InCaUvBb4jdbO19J+N2nL7yCYSKqeTDJwAVL66+qU5fcFfgn8VyjpVVxXMCF815vju97XWz8YcENNv5cMGGbqxpWFHaFI6/r4XuI2wK3AFKHkHnE1Gpa25f3mpu3vZKFvRCHVKAIA4nI8oxDlRcR/j8k+wPNCyRuBs33XW9DL55MhA50zE30jAqkbVxZGmEg+VzIXjjvAD4DDhJIXAlf6rteahKDuqPX3kgVSXxZmYl0dSYd4VOiG/sAlmLqChyYqaX1q/r2kb5j1mSuyDlb03w64Wyj5GHCK73ozkhZY++8lfeozV0QdtHZsXgl0IDBNKHm1UHJwopJq/L1kYeZK3biycAofRf6Kd7a4DPgjUIxFmd7JAycArwklxyWV2lLr7yW2CI0IpG5cVJPiksERstTWuNJ3vRMwFXLjiVqpjM0wdTNmCCUPjr31LMwa0XSwdR91t6RuXFo7bVo7K1M95wopu7MOvuvN8F3vAOCbwLxYFKuM0cCDQsn7hZKj4mo0C2dMEeSv0tqxeWNMWVI3rvYT+5XQzqQaHiHXacp3vXswKR1nASviUbAivgLMFEpeLpSMXoe6tmeuie0n9ivFo0R4UjcuAK2dX2vtjNcmRdr+KXzMHcl3vVbf9S7BVMW9ERLesP+YRuAUTGrLTyKltmTAuELMWCuDfvTrWBSISCaMq3BSiy6c1HIF2tkR7fyFDaTUgO96C3zX+wHwaeDpWJStjCGYTZaXhJL7h2kgC8vCKg36JrQzqnBSyxWFk1pS97cgI8bVQWFc3/cK4/oeq0u5vXQp94wu5ejtJxYSHqV913sB2Bc4Cng/HqUrYhfg30LJO4SSI6r6ZhZmrgrevy7lntWl3J6FcX2PKYzrW1WNkKTJlHF1UDyl+Tm0sw/a+S7aeTf5l2hly7cF44sNjEXp6jgMU2rgQqFkv0q+kIlt8J4N+F208z2085niKc3PxSMwXlKP0OiO4vgmDdyau6z9HuAM4HSgz3of+zAWYXEtY8oQpJAchamEu2VignqnGTgbOFYoeRZws+963S+fEnwmlaK1s6zMr9cAlwITSxMaoxU+TZhMzlydKU1oXFWa0PjLwB+b3GnkakM7N8QhIyn/Qij5aeAZ4BbSNazObAn8BXhWKLlXdx/KiM91Q/CeO975ZLQzpjSh8dysGxZkeOZan9KpDW8BRziTihdifImn9On5N2JpPOZRWii5JXAx8P1YG46XTwPPCCX/Cpzhu9676/xrBmau0qkNzzqTimMwaTgv69Pzr6StUzXUjHF1EDzgWB9yXCOtULIPMB6z/NoklkaT57vAN4WSFwOXdZQaiG32iUgwgMYziFom88tCG1S4K9XjjqVQ8jBgNqboZq0YVgctmHu+ZgslD4d4nsnGTv0pQKQt56Z+Kz8hlHwcU2RzeLp/SGSGAbcLJZ9s6r9yy7S34mudmlsWJkGUJdAmWy08EUtJXRb57CZbLty39cNUCwTXPPWZC6IeltoyrCLwAPZSW5z6zBWNunER8cDUTkd6GNjFd71DMBc8PJi0QK0zcIhc49SXhRBtpE02im0uMMF3vfs6fuG73mzgy0LJQ4DLMTeXxE/HLSd1QlOfuYh2YJrQqnA5cBowtrNhdcZ3vfsxs9gE4opUWYcMHCLXOPWZC7I0c2ngz8DPfdfr9RYZ3/XagMuFkrdgttJ/TFwDZn3mikzduIi2Wxhj3cIpwEm+602v9ouBIf5EKHk1cBXmaqBIaOozUFTqxgWgnfbw340sfT7mppMeL6OrBN/1Xgb2Dw60LyXKuVu0masQWu4GRN3nAnTJWaLN1ZvV74qF74CrgF8AY+IwrM74rncnJr3l50C4ANfwu4XP6pKzJM6/p1apGxfQfmI/jXYORDvnOI4uWDjPuQUY5bveBUldG+S73hrf9S7C7CbeFKqRKp6D4+gi2jkX7Xw+C/UrskB9Ub0eA+9+bXSxvfH+VQuGVHRJuLvLLAaLuZU2PxU42Xe9Z0MrGJIg/eW3wJ6VfH6JPxL18k4Vtd2yxeJ5DX1av7r066NmRVBxg6M+c63Hsm/u8Oryw4dtP3DHN45r3vSjFb3PXBWNT+8BxwB7p2FYAL7rPQfsDXwv0KcXep+tmjf9aOXAHd84bvnhw7arG1ZX6jNXD2z+r+m5wqq+V694Z4sfF9Y058t9ZsiuPoPHzumuiTWYg96LfdezWWatR4SSm2Cyu0+ja3Y3AEtmjmLxdFH2+w19Wov9tl5wfUPL6p8uPGDX+hKwG+rGVQGbPzZ9aOsHA+5a8e4W++jiujY2ZDefwWP/W+5rdwKn+65ns0BoVQglhwMTgcPX/7clM3dk8bR1jcvJl+i31ftPNw1Y8a1FX/jkQjta1i5146qCIQ/N2He1GiRXLRiydcfvhu4+k8E7r2NcLwPjfNd7wrqCIRFK7ocpjb1bx++WzNiRRS+NXfuZli0Wv9vXXXrU4oN3ftK+hrVJ3eeqgsUH7/yfFd/daptBo18/qWnAitXr7RguBn4K7F5LhgXgu96TwKeA4wETGRL8bU0DVqwZNPr1U1Z8d6ut64ZVHfWZKyRDH3mloX1ly/XNAz/82mAx53rgV77rJRDjZxeh5ADgF0v8UT9uXbrp/X2HLvnBe/vsGf6QfSPG0ToTxUnr1Nng+P9ScDeBk0bXEQAAAABJRU5ErkJggg==;fontSize=10;" vertex="1" parent="1">
          <mxGeometry x="381" y="857" width="32.26" height="30" as="geometry" />
        </mxCell>
        <mxCell id="VgT5aje4Y89rEEMWAGqi-12" value="Linkerd Control Plane" style="shape=image;imageAspect=0;aspect=fixed;verticalLabelPosition=bottom;verticalAlign=top;image=data:image/png,iVBORw0KGgoAAAANSUhEUgAAANcAAADICAYAAAB7/XT7AAAACXBIWXMAAAsTAAALEwEAmpwYAAAFFmlUWHRYTUw6Y29tLmFkb2JlLnhtcAAAAAAAPD94cGFja2V0IGJlZ2luPSLvu78iIGlkPSJXNU0wTXBDZWhpSHpyZVN6TlRjemtjOWQiPz4gPHg6eG1wbWV0YSB4bWxuczp4PSJhZG9iZTpuczptZXRhLyIgeDp4bXB0az0iQWRvYmUgWE1QIENvcmUgNS42LWMxNDAgNzkuMTYwNDUxLCAyMDE3LzA1LzA2LTAxOjA4OjIxICAgICAgICAiPiA8cmRmOlJERiB4bWxuczpyZGY9Imh0dHA6Ly93d3cudzMub3JnLzE5OTkvMDIvMjItcmRmLXN5bnRheC1ucyMiPiA8cmRmOkRlc2NyaXB0aW9uIHJkZjphYm91dD0iIiB4bWxuczp4bXA9Imh0dHA6Ly9ucy5hZG9iZS5jb20veGFwLzEuMC8iIHhtbG5zOmRjPSJodHRwOi8vcHVybC5vcmcvZGMvZWxlbWVudHMvMS4xLyIgeG1sbnM6cGhvdG9zaG9wPSJodHRwOi8vbnMuYWRvYmUuY29tL3Bob3Rvc2hvcC8xLjAvIiB4bWxuczp4bXBNTT0iaHR0cDovL25zLmFkb2JlLmNvbS94YXAvMS4wL21tLyIgeG1sbnM6c3RFdnQ9Imh0dHA6Ly9ucy5hZG9iZS5jb20veGFwLzEuMC9zVHlwZS9SZXNvdXJjZUV2ZW50IyIgeG1wOkNyZWF0b3JUb29sPSJBZG9iZSBQaG90b3Nob3AgQ0MgKE1hY2ludG9zaCkiIHhtcDpDcmVhdGVEYXRlPSIyMDE3LTEyLTA4VDExOjEwOjMwLTA4OjAwIiB4bXA6TW9kaWZ5RGF0ZT0iMjAxNy0xMi0wOFQxMToxNzoyMi0wODowMCIgeG1wOk1ldGFkYXRhRGF0ZT0iMjAxNy0xMi0wOFQxMToxNzoyMi0wODowMCIgZGM6Zm9ybWF0PSJpbWFnZS9wbmciIHBob3Rvc2hvcDpDb2xvck1vZGU9IjMiIHBob3Rvc2hvcDpJQ0NQcm9maWxlPSJzUkdCIElFQzYxOTY2LTIuMSIgeG1wTU06SW5zdGFuY2VJRD0ieG1wLmlpZDozZGI0ZTZhYi05N2UwLTQ5NGMtYTE2OC0yMjAwZDgwMTkxYjciIHhtcE1NOkRvY3VtZW50SUQ9InhtcC5kaWQ6M2RiNGU2YWItOTdlMC00OTRjLWExNjgtMjIwMGQ4MDE5MWI3IiB4bXBNTTpPcmlnaW5hbERvY3VtZW50SUQ9InhtcC5kaWQ6M2RiNGU2YWItOTdlMC00OTRjLWExNjgtMjIwMGQ4MDE5MWI3Ij4gPHhtcE1NOkhpc3Rvcnk+IDxyZGY6U2VxPiA8cmRmOmxpIHN0RXZ0OmFjdGlvbj0iY3JlYXRlZCIgc3RFdnQ6aW5zdGFuY2VJRD0ieG1wLmlpZDozZGI0ZTZhYi05N2UwLTQ5NGMtYTE2OC0yMjAwZDgwMTkxYjciIHN0RXZ0OndoZW49IjIwMTctMTItMDhUMTE6MTA6MzAtMDg6MDAiIHN0RXZ0OnNvZnR3YXJlQWdlbnQ9IkFkb2JlIFBob3Rvc2hvcCBDQyAoTWFjaW50b3NoKSIvPiA8L3JkZjpTZXE+IDwveG1wTU06SGlzdG9yeT4gPC9yZGY6RGVzY3JpcHRpb24+IDwvcmRmOlJERj4gPC94OnhtcG1ldGE+IDw/eHBhY2tldCBlbmQ9InIiPz4WxorCAAAqQElEQVR4nO2deZhUxdW439s9C4yAAhc0boAKgoVxyxc1GmPUxCRmMYlRr4nRLJr4i58ouMcYTdzAuOVLTKJGjRpL0bjEaFwTlbjgBgoXDKiIK0sBimwz0931+6Pu4MD0zHTfpe5t6Pd55vFx6K5z5t46VXWqzjnlUKdqhJIOcDRwGiCA94HrgEm+661MU7coCCVbgAnA8cCWgA9cCtziu55OU7daxElbgVpDKLk3cBXwP2X++T3gLODmWuqMwWBxJDAR2KbMR54HTvJd71mritU4deOqEKHkVsAk4KgKPj4VOLkWOqNQ8lOYweIzFXz8VuB03/XeTVarDYO6cfWCULIvZvl3BtBS5ddvBs7KYmcUSm4BXAwcQ3X9YBVmhrvUd73VSei2oVA3rm4IlkqHYzrSsAhNrQIuAi7PQmcUSjYDJwPnAP0iNDUfM+BMrqUlsE3qxlUGoeTuwJXAZ2Nsdj5wmu96d8TYZlUIJQ8FLgdGxNjsFMwS+KUY29wgqBvXeggljwX+DOQSEvEkMM53vekJtd8FoeTOGL/q8wmJKAE/8l3vxoTar0nqxrUeQsl3gK0SFqMxW/fn+K63KCkhQsnBwAXAcUA+KTkBC3zX+0TCMmqKpEbnWqbZggwH0+HnCiVPFUo2xdm4ULJBKHky8BrwU5I3LIA+FmTUFHXj6spEi7IGYA5pZwolvxZHg0LJLwMzgCuAzeJos0ImWZRVE9SXhWUQSn4Fs6Ex0rLoh4FTfNebVe0XhZI7YjYrvhK7Vj3zOjDBd717LcvNPHXj6oZgqXYi8EvMDGOLInA1cJ7vekt7+7BQcjPgXIyujcmqtg4fARcCV/qu12pRbs1QN65eEEoOBX4N/Bi7y+ilGKP5k+96hTJ65QOdfg0MsaiXBm4EzvZdb4FFuTVH3bgqRCi5K2ap+DnLon3MUvGRTrrsj9la/6RlXZ7CHCO8aFluTVI3rioRSn4H47wPtyz6Xoxxnwh827Lst4HTgdvr0RiVUzeuEAgl+2BSM84CNklZnSRZjRlIJmYhdKvWqBtXBISSWwKXYHK7NjRuw4RrvZO2IrVK3bhiQCi5J8YH2jNtXWLgBYxf9XTaitQ6NX2ILJQcHER5p4rvelOBvTEz2HspqxOWhcAPgD2zYFhCySah5MC09YhCzc1cQSrIUZht6lFAAbgT+Lnvem+kqRuAUHIT4EzgVGojJKgNc/h8ke96H6WtjFByBCYe8nCgAZgD/Aq4tdY2U2rKuISSnwZ+S/nlV9Y6yXBMKNXhKavSE3cDp2ZkUOoH/Bw4hfLxnVMxpQaes6pYBGrCuKrcOFiImTlu8l2vlKhiFSCU3A/jj+2asiqdmYHJwfpX2ooEK5HvY7KiK4mqvxk403e9zC+/M21cwZb3eOBsqt/yzoxjLpTMAT/CLHeGpqiKwiynry0X9WGbXor99MRKjDFe5rvemtgVi4nMGpdQ8jBMxPjwiE1lZktZKLkpJr1+HHbjAMFkQu/tu977luV2QSi5NWbJXEmxn554E1MwJ7Xs7p7InHElFGaUqcNQoeRI4DIgljSTKpiH8bHusiwXiFzspyeewCxzp8fYZmQyZVxBTtPfSG5Uz1QYj1DyYMwmzE6WRT+OWTK/YkNYjMV+eqIAfMt3vfsSar9qsnbOdSrJLpe2ASQwRSi5R4JyKsJ3vYeAXYCTgGUWRe8PTBNK/lEomWhEfVDs5wnM8jwpwwKzbX9agu1XTdZmrn9jXrwNMpU6IZQchDnPsZWW38GHwHnA733Xa4+rUaHk5ph8rx9ir5894bve/pZk9UrWjOsLwH3YqWPRQaaS/oSSAuNzHmRZ9ByM3/LPKI0ESabjgF8A/eNQrEJaga/7rvewRZk9kinjgtTT1U/1Xe8ey3LLIpT8OuY5bG9Z9IOY/LFXq/1iLeqcJJkzrg6CQiuXA6Mti34M86JmWJbbhRRngQLwe0ypgQ96+3DKs+0pvus9YFluRWTWuMCUCOPjOhabWRRdBK4BfuG73hKLcsuSkv8CHx86X+O7XrGMXmn6iecDv4vTT4ybTBtXB0JJF1MrwkZxy858gDHsqzMS0ZBEme1KWCdcKhj0TsB0cJuR6yXgWsygt9ii3FDUhHF1YKEsc3e8iulcD1mW2wVLZ0bdcTcwGbNMtX029wQmcNfK2Vwc1JRxdZDQhQKV8ABmjT/HstwuJBjtkDXexNRFTCWqJAo1aVyw9iqcUzBpClGuwqmWduD/gF/5rvehRblliTFOL2uswFy9dEWWg3N7omaNq4MIl7hFZTFmeXRtRlJbwkaYZ5G/YA73M59W0hOhOmOwS/QHzHU4ZYtW2qbK60fj5GWMP/a4ZbldCJEblTWewTzL1BMig02bn2I2j06opPrx+lRlXEFe0lWYnaKOXbtZmAfySLdftESni7MnAVtbFn8nJv1hnmW5XaggqzdrvIvxHTORyh9ECl3Jx5s2ReCPmA2VilcpFRuXULcdDfr3dH+YeR8w3ne91yptMymEki2Y6PfTgb4WRbdiUkku9l1vhUW5ZQnqUfwG+FbaunTDGkzO3iW+661KWxmh5A6YjbLuUoE+AudE3z3ypkra69W4xOLbPgnchaMrCWlpx1j8Bb7rLa9EgSQRSm6LcfaPtCz6PUzB0JszMhLvTzrlr3tiMmamn5+2IkLJARj/ubIkVu28BhzmDzny5Z4+1q1x7bT49gGgJzuO/mJPn+uGRZhlyfUZcfb3wXQu22kmz2Hypp61LLcLnS5uuABwU1RlGuaZTElRByBy+QWttfMw2jli1tAjyu4alzWanRbdPtHJlcZjcmSiMA3jjz0ZsZ3IBA/yGIyzv7ll8X8FzvBd713LcrvQ6cqh/yX6+62Wp4GDMpINvh9mlbVbxKYKupS7fNbQI85Y/x/WMa6dFt1+GI6+xnF03CEtkzGd682Y260aoWR/TB2Lk4FYr0vthVV8XFQlC51ro8w+SKrkndbOMrRz/KyhR9zZ8TsHYKeFk0fj6L85uVKSIS0dzutE3/VWJiinIoSS22E61zcsi56P8TUmW5Zblo0l+yAo1noGJqolsWKtupSbhXa+PWvzw191dlo4+S4nXzwUewewWdt2PQDjj421LHoKxveYZlluF4SSjcDPSCf74E/AuUllH3Sq0DwJ2DIJGWXQupi/xxn97t90rrGAk7O+7/AspnNl5cDwOIxjO8iiaA38GVOKe5FFuWXZ0LIPggrNVwF7xdVmJehSjlJ7A86ot+7RALmGAvnGAjjWJ5ObgLOyEOoSFP7/JSaHzGbnWo4x7Kt812uzKLcstZ59EFRovhgTrWIP7VBsb6BUMPtEzqj5935sTY4m31gg12g9/2wlJhkwE0GaQskxGD/kS5ZFz8U4+3+3LLcsQslvYg7FbWcf3I8JSKgq+yBiheZIlNobKbY3gP7Yu3JGvfn3LlOVkyuRa2oj19Al+TRp3sR0rr/ZFlwOoeQhGCMbZVn0w5jO5VuW24VayT4QSn4bE40yPGG91qFUyFNqa0KXulYpdEbOu6/bdWCuoUi+uTUNf+wJjD/W4wm4DYI6FidizoY2tSi6CFyNqWNRddBo3GQ1+0AouQtmCWv1InhdylFsbaZU6N57cEa+8Y9enax8Uzv55lbb/lgJuA44Jwsp3ULJoRhn/8fYLaa6DNO56tkHZsB9ItAjnfehHYqtzRTbeo+ScnZ4/f7KLMbRNPRpJd9k3d/+EFME5f+yUIwkrZGSevZBB3cCL2KuibK5kqDY1kRhTfM6flVPODu89kBV05GTL9LQdw25BuuD6ByMH3K/bcHliPEWlmr5OybtfWPOPrBKqdBAYXUfdLG6DWRn+zn/DLXWyze1q8Z+K5cBI8N8PwIPYoxstmW5XUhxd6qefWCHue0rNhlYbGsMFejsbD/nwbCO1Nt9Bi3bAROmfw4wIGQ7YegoWnm+73o2LzAoS2rnKvXsg6RYjvHnfrtmycDXMBd4VI2z3asPhTauN0YfvC2sLVp5ASZ83+ZO0hI+3knKgrPf053NSZK1NI5jMcVlbGcfRKVLxMx2rz70FqGNa/bD4Y1rzBe37fwLoeRumJHLdtHKmZjOlZU7fm3HsnWQpQTEtLIPwjIFk8Y/vfMvt5v9cHjjGjHrkdDGNW+nL2xb7h+EkodjOpftopX3YvyxLNxObyUKuwz17IPqmI+51rfs1a8jZj0Swbj8R8MblziorHHB2qKVEzDp7jaLVrYBVwAX+q73kUW5ZUkqf6gCspZ9cCBmE8Z29kF3VJRfN8J/NLxxDZ/5WGjjenPsgd0aVwdCya0wneu7IeWEZSHGsP+SEWc/rszXaqlnH3TlFuDMSjLDh898LLRx5dAOoX8qIPgDjgVuDqNgBDYHrgeeC3axUiUodfAp4HjMLp8t9gKmCiVvDHY1U8N3vYLven8AdsD45taDV4FbgR9VXHIhgn04w175d+iZa/4nP1/JzJVWpuv63IZx9t9OWY/qqw3FRxazD64ADrYsei7mIL7Xy8mHvfLv8MvCYS8/Ht64dtm/J58rrRoNPbEas9EyKSN18kZiUjq6q5OXFG9Szz6ACrIPhr38eHjj2nbaE6GN663dPtfFuFKuLlQpb2Oc/dsy4ux/ETOCb7TX8mQ1+2DbaU9EMK6XngxvXLvvt9a4MlQXrxqexjj7L6StSKfa5L/C/oVy9ewDWIox7HWyD7Z96cnwxrXNi1NCG9fbe3y2I0Jjf7JX0bVSNHAj5laNBSnrkvZVqFnKPtgVs7tqO/vAx1SlegRgmxenRDCuF/4T2rgGDH/7c2S7Fnk1rMDMulf6rteatjLBJd5XAF+wLDpTl3innX2w/M1t/kVo43r+qaqNy8lpmgd+sLxpwEfN1MYtGtUwD+Pk3pO2IgBCya9jNj12sCy6nn0A7W3L+69pXbZp/3Jp/L3hbP1cdcbV1H8lfQZ9gJNP44jCKv/CJCdaKVrZE4GzPw6zfd/dLTNJkMXsg0uAo23K1cU8a5ZuSttH1ZUQcbae+nRFxpXv00pfdyn5ZuuZyC9gwqh2A87DftHKazHOfiJFK6uhnn1gSCv7oNjaxBo1yGQjV4Cz1bPP9GhcuYYCfQYvo6m/9RjQBZjwpZs6wpeEkoMxO0nHY79o5fnA7zLSuXbHOPu2sw9mYGbzjTr7oH3FJqxWA9fWJ+wOZ6tnni1rXI6jaR74Ic2DPsCxW5imDXOgeFF3gbdB0corgANtKoYpWjned71/WpZbFqHkEZi4TdvZB/dgIhyykn1wJnAqFrMPtHZoXbYprUs3Q3cTCuhs+dTULpbT1H8FfYcsJddofZC+GxM5UNFLE0oeinH2t0tSqTI8gDGy/1qW24Ug++A0zKF4PfvAcvZBqdDA6sWDaFve1R9ztvzPc2uNK9+nlZahioYW62FnoZcbQdHKkzHp7jad/Xbgd5iilR9YlFuWIPtgEmapZJOFmJlj7fI9TdLKPiis7sPqhe46/pjziSnP61xDkb5DltC8mfVaJwpzKn6N73qRth+DopUXYSLw0yhaeV3UvyEOhJJ7YZz9/7Es+kVMKNXTluV2IeKNkZFo/bA/qxcNplRowBnhP6L7Dllqu6puxxbveXGP+kLJPTDRIrbTTF7BhFI9blluFwJn/2jMtvUnLIvPUvbBpphSA1azD3Qpx2o1CGfMgju0LuVsFvt8EBMB8GpSAjoVrZxIyNP1CPwNkzY+z7LcLggl+2EOXsdj97C/I/tgYkZu0bSafVBsa8LJlXB2WnybBii1NuE0FJMs9jkH41dZ22kLnP0zsF+0spWPdzxXWJRbFqHkCEwI0bcti96osg9KhTylQsPas2Bnp0W3r/NHF1ubyPdpjXP7/UPM4e/v0woIFUpujelctotWvs/HZ3VZ6Fz7Y5z9XSyLfgozsGYl++AEzLllLNkHWjsU1zR3CbBwxiyc3OWl65KDLjTQ0DfSrmEJE93wi4ykMmyOqTO+bwrin8c4+8+mIHsdOqUG/RoYYlH0Bpl9UFjdB6ehgJPrOnY6Yxbc0e2IWio04DilMCFPj2Oc+6wk4aURl1eOWzHOfmX1GxKkU1LridgtNbBBZB8UW5vQOtejG+WMfv/OXpcrpfZG8k2tlVyGNw9zCHxXNYomRRBRfjmwfdq6dGIVZqPl0ow4+2mVY3gDE+Vxj2W5Zak0+6BUyFNsa67o9lVn9Ht/q8wX0MbIGjdZVe6erhWYM6asFD4RGN/ioJRV6Yn5wBm+692etiIAQskvYUZw24WEaiP7QDu0r2wxUUsV7kc4O75zV3WOdimHBhpbVoNZR3dcGP5+Ve0kQIpZvFGYgulcL6WtSODsn4i5dH0zi6IznX3QvqovjgM41Z0FOzu+fXeoXSxdzBUa+63aJ0PFJmPdAbJMxwUA5/iutzBtZYLsgwswBTxtZx+ch9lZzkT2Qdvyfs/kGguhat07o966J/QW8ZxtD7UZZlQWoeTBGJ/BduWkJPgIs4t3le961hPn1ifIPrgSOMCy6FcxgQYPWpbbhR3e+Ech19DDxcc94Iyaf2944xr2jdSMSyg5ClO/w3bNPxu8jom6/3vaisDa7IPLgRGWRaeefbDD6/eHN66Rb/49tHHNHf5168aVVrxYSjyCGcG7LVppi07ZB+cA1eW7R6Mj++B83/U+tCgXgO1feyCCcc27L7xxjfiaNePqFOl8IfYPP2/CnAl9G+Ps2y5a+Ufg3HJFK22zsWUfbD/3n+GNa4fX7w9tXK9tf4iVhxvk6FwF7GpDXieewezkrd20EUoOwTj7totWLsMY9h8y4ux/CvNOPmNZ9MuYd/K4DWHb/fehCMb12gPhjWuHryRqXEF26STgO0nKKcO7mGBf2V1MoFDyk5i8KdtFK2dhlooPW5bbhY0h+2C7Vx8Ob1zbz/1naON6feSXEzGuoC7CWZiqT7ZvZexIlajoogah5LcwJ/vDE9SrHPdhIhzmWpbbBaFkC2YwSiP74DLg4qSyD0bMfiSCcc15MLxxjfpSrMYVjITfwyT5pXGf8Gm+671V7ReDopWnYEoNWC1aiVmaXZCGs78+QsltMINTGtkHZwI3x519MGLWo+GNa7tXHwqtzBujD47NuIL09CuxXIsOmIaJWP9P1IaCopUXAcdE1qo6FmF28f6ckToW+2CMfg/LomPPPhg+87EIxjX74fDGNeaLkY0rGPWvwXIVVUyHPAu4Me4OGRStvBLYO852K2Aaxtl/0rLcLgS7u8dg7h3e3LL4vwI/jiPOdfiMf4U2rpzWDmF/YsHBweFATKayDdowS5eRvutdn8RIH+wu7oNZ4tpML9kNeEIoeXuwGZQavuuVfNe7ARiJ2fCwFXEyB4f9ceI5JohiH84I/9HQM9c8cVDkP2Cnxbf1xaRhAMxyHD2E5M6x7sWkxLyWUPtdCJz9MzG1BW1vzvwGuMR3PevlktdHKLkdJsrjGwmJWKy1s5iPw+BaZg05MnJKz7CXHw+/LBw+87HQxvXm2AOjG9ei2zsbF0DRcfR0HD2W+IqqzMSE0TwSU3tVI5QchpkxrRatBN7D7OLdmpFSAwdg/LGxMTXZinZ8rZ1dWDfIuGXW0CMiG9e2058IvyyMclt5HJSZTvOlUm6PUjHfinamR2x+KSaFYrc0DQvAd735mG1j21WhtgRuAZ4JfMFUCQq/7gb8P8wFD+HRzvRSMd9aKuV219rJJ+K2RLCPBl1KObC9+4cwoFTM7+o4+i0nX2ynumzijntuf5mhq28uBr6fohp7AlOFkjcDZ/qu915aigQRJn8QSt6GiTo5kepSW97QxXyD1s6uSejXGV1yCGsjDXHNQGHpbYTR2tmWUg4nV5qZyxc/AQzupcmHMREMs+LSMSwpXtrWE0cD3xJKXgxclmbmeDDwnSyU/BPGH/tSL19ZUirm39Ol3M7JaxcQYZWW/m5hhVOsLubHFtuaNtWl3IuYw9P1mQt8zXe9gzNiWIcBszGBxlkxrA42wcRHzg70TBXf9Wb7rvdl4KuU3zVu16Xci8W2pgG6mN85Zbel4p/0fa5g2q3wp6HY1rhHsbVphdZOR2Wp5ZjrY8b6rvePWJSKgFByV6Hk48Ad2A+JqpbhwB1CyceDC75TxXe9+zEbHRMw9S7R2nml2Nr0UbGtcQ9dchqr6S+xsIH6XN1/RTsDi2uaBzr54t35pvaf+q63KAHNqkIoORSTRWw7Wj4OPge8KJS8DlNnMrXnGRSOvVwoeUuxrfGPupj/Zlq6QDSfK/2ZK8K0Wyo0FNI2LKFkk1ByPGY5czy1Z1gd5DD6zxVKjg8qIaWG73qLSoWGQq24LeV+MuBz5aL9pIhQ8hDM3WKXYTeBMkkGYP6eGcHflx4Z6BtR7CP93cK0l6UhEEqOwdT4O9iy6Fbs3VYyCviHUPIhzO7rbEty15KJvhFhlZaBmSvCstTywCCUHCiUvBIzW9k0rOWY8Ck3+K/NWwoPxsxiVwklB1qUm4m+UdszV8ryKyGoi3gcZvt6kEXRGrgOU8+ww7f8jVDyJswW/4+wU8ciD5wEfE8oeQ5wrY1SA5noG5Fmruq2wjO11WljYBBKHohJ5bgau4Y1Bdjdd73j19+08V1vke96xwG7B5+zxSDMc5gWPJdkyUDfiGIf9ZmrGyxEcXfHfExG9B29fdB3venAfkLJwzFBwcMS1q2DscCjQsl7MaUGXk9CSCb6RjSfK0fYn1iVz8jMJZTsL5SciImusGlYqzDZxGMqMazO+K43GRiDKT1WUe2PmPgGMEsoOVEoGf/1TBnoG1HsI/2ZKws7QqzNnD0Wk6ZvO3P2FkwwbejEyuA6oguEkjdgapB8Ly7leqEJk9JyjFDybGLM7M5E36j7XNEIbrWYirkMwaZhTQX29l3v6LguxPNd713f9Y7GlBiweUnG5pjnNzV4ntHJQN+IYh81HaER25rcIYfDFpjgXxu8h6kvsXdSV7kG7e4VyLGVXjIXhy1w4olSyUTfiGAfDak7jWnLZ+3yY+vgf33H0UNJptTAGswmyUU2Uu+DzOObhJJ3YYrxjCeZUgOLtXYWAYI4c52z0DciGGrd54L1X6LQ2ik6jn4x5lIDd2LuQ7adiUxQMPPnQWDuJCCuNJNWtDNTm6TF2AejzPSN0D5XDU+7CS5NO0oNrEE7L8cgYglwP2abPTV815vnu953gM9jaq6HRzsvl4r5NaVSbg+dwRT72CYNR38Q1j7qPhf09DduWirmd9GlXNRohMHADcCzQknbFxd0IbjEYHfM9baLq/z6PF3Mzy8V87ugnU039L7hOHpVWPuo7xbS+0ssFfMNxfZGdCmyn/4/wFNCyb8KJbfu9dMJEtQV/BOmruDllM/u7szSUjH/SrG9cUSplBu20axq6ruFUZWo7O8tFRootjXFIfcoYI5Q8lyhpM2LC7rgu96HvutNwERdPFDmIx0p9v11Mf/Jet+oZuaqYeXTGp2KrU0U2xqjPoO+mAvS/yuUPCK4hCI1fNeb47veIZgiMa8CaO3MKLY2La/FFPssGHj6M1eEaTfNl6iLeYprmikVIy8VtwFuA54USu4e/Y+Jhu96DwE7F9saLy2uad5Zl3KD630j7MxVw8pnYXQiuh/Wwb7AC0LJP8cW4RAS3/UKpULDsvqqJpqBp36InLZ8o0QUHWLV3wF+CHxHKHkhcIXverYuMFiXDLyXLPSNKDqkvizMxOgUYYTWyVRf748Jvp0llDw0EQm9UOubCVnon/WZC7I0c63P9sDdQslHMXUsZiYpbB0y8F6y0Dei6JB6+FPq8iGa/2jn3pCDgOlB2edzfdeLdoFBBWQm9ChtohhX2g8xhoPZGJSIoIN2StipVZjH3AziCSXPA65OtI5FymXrIBt9I4p91H0uovkXhbam3wH/jkWRyhiIud/qFaFkYhWo6j5XdB1SP0Su9ZeoCw0LfNc7APg2du/eGgM8KJS8Tyg5KvbWM9Cxs9A3osivz1zE8xJ917sL0+HPBlbEolhlfBWYKZT8jVAytqq/WejYWegbkWautJWv9VP4zs/Bd71W3/UuxgTD/gUsbXdAI+ZmkLlCyeODeiDRyEDHrvW+kfqycEN8ib7rLfBd71jMbY7PxKJkZQwB/gS8JJTcL0pDtd6xs7CqyelSjrA/aSufdQP3Xe95YB9MFHwsBWgqZBfgCaHkHULJ4aFaqPGOHZvPFcE+Ul8Wbugv0Xc97buexFxscD6mjoYtDsPcHnmhULKq2y2z0LGz0Ddqelm4sbxE3/VW+a53HrAjcHs8ildEH8wmyxyh5NEVp7ZkoGNnoW9EWham/QA3tpfou95bvusdCXwWeCmWP6AytgRuAp4RSu7V24ez0LGz0DeizVwpO60bq+Psu95/MGn/PwIWxvOHVMSeGAO7SSi5VbefykDHzkLfiCI/9ZkrCyNkWi8xqGNxPcYfmwTYTC85GrNU/Hm5UgOZ6NgZ6BvRZq4aVj4LU38cOviut9x3vTOAnYB7IzdYOS2YO8dmCSW/s86/1N+LUSGCfaQeFR/b0i6KDik/gw6Cq3gOFUoehLkWdqwl0cOByULJJ4FxvutNz8IzyULfiGIf9ZkrKzp0wne9R4HdgJ8BS2MX0D37YQ6gr3FypX6pP5MMvJfanrnqI2RZgnSSq4WSEjgPY2h5C6Id4Limfitb1yyLLVQxFFnoG1HsI/V8rrSNOzM6dIPvesuAcULJPwJXAl+0JLo59eeStnyiDbz1mSsjOvSG73qzgYOFkodg/LGRScrTpP9c0pZvlKj7XLWvQ4X4rnc/ZqNjArA8MUFZeCYZ0KG2fa60l6VkZISsgqDc2uVCyVuAXwPHkUClnLSfSxb6Rt3n2hB0CIHveouAnwgl/4Dxxz4XW+MpzMpldUiZus8VVYcoD7Bl9Y4xqhIK3/WmA/sHB8GTMOdWkdCkP3NkoW9E9bleT9fnykX7iUWH8Ov6xk1WHyOU/KdQckw8yoTHd707MKUGzgGiXQubAX8nC30jgs/VnkM7l6TqMNZ4DFvAlzDVmK4USg6MRamQ+K63xne9CzGpLTdHaSvtza4s9I0IA8zNufb/3eQ6rZ2fae18VN8tjKRDAzAOEwx7glCyIR7lwuG73ru+630f2AuYWnUDG857iaZC9QPLCq2dM7V2fpIDKJzUcjXaGYl2bkA7OuPKxz9CxivfBa7GhBEdEIuCEfBdbyqwNyYK/r1qvlvL7yWFwV+jnRvRzsjCSS0TCye1FNYuTAvj+i4sjOv7Q11yPqVLzlM1MO1mZITsttWdgceEkncLJbeLR9FwBKUGbsGktlxIJaUGNDX+XmIy8MqWoE/rkvPpwri+PyiM67ug47tdvL7iKX1eQjufRTtHop23N4qZK8ravncdDsXUsbhYKNk/FoVD4rveSt/1zsFsetzR02e1jvBMMuALW5q53kY7R6GdfYun9Hlh/a+W3VIpjm/WxfHNt2vt7Ki1c57Wzuoyyi+yoHz2R8jKaALOxNQVPDaWuoIR8F3vTd/1Dseci03v9oO1/F7iG/xXlen7q7V2ztfaGV0c3yyL45vLrl96fMmlCU2rSxOazkfnRqFzcr2tzitiUT4DO0KRRsfqXuLmwA3Ac0LJz8SifAR813sS2AM4Hli8zj9mYNbIQt9A565er9/fhs6NLk1oOq80oWlVT1+taEerdGrDO8BRzqTipZicn1f06fl4Lh+Ia5SrLR32AJ4SSt4GnOa73ju2FejAd70ScK1QcjLmfGwcpoJv+u8mbflA6dSG3zqTijMwtSCn6NPzL1b63aq2i/Xp+WnAtCr167nNDDzAKDpE1P9I4BtCyUnARN/1VkdpLAq+630InCaUvBb4jdbO19J+N2nL7yCYSKqeTDJwAVL66+qU5fcFfgn8VyjpVVxXMCF815vju97XWz8YcENNv5cMGGbqxpWFHaFI6/r4XuI2wK3AFKHkHnE1Gpa25f3mpu3vZKFvRCHVKAIA4nI8oxDlRcR/j8k+wPNCyRuBs33XW9DL55MhA50zE30jAqkbVxZGmEg+VzIXjjvAD4DDhJIXAlf6rteahKDuqPX3kgVSXxZmYl0dSYd4VOiG/sAlmLqChyYqaX1q/r2kb5j1mSuyDlb03w64Wyj5GHCK73ozkhZY++8lfeozV0QdtHZsXgl0IDBNKHm1UHJwopJq/L1kYeZK3biycAofRf6Kd7a4DPgjUIxFmd7JAycArwklxyWV2lLr7yW2CI0IpG5cVJPiksERstTWuNJ3vRMwFXLjiVqpjM0wdTNmCCUPjr31LMwa0XSwdR91t6RuXFo7bVo7K1M95wopu7MOvuvN8F3vAOCbwLxYFKuM0cCDQsn7hZKj4mo0C2dMEeSv0tqxeWNMWVI3rvYT+5XQzqQaHiHXacp3vXswKR1nASviUbAivgLMFEpeLpSMXoe6tmeuie0n9ivFo0R4UjcuAK2dX2vtjNcmRdr+KXzMHcl3vVbf9S7BVMW9ERLesP+YRuAUTGrLTyKltmTAuELMWCuDfvTrWBSISCaMq3BSiy6c1HIF2tkR7fyFDaTUgO96C3zX+wHwaeDpWJStjCGYTZaXhJL7h2kgC8vCKg36JrQzqnBSyxWFk1pS97cgI8bVQWFc3/cK4/oeq0u5vXQp94wu5ejtJxYSHqV913sB2Bc4Cng/HqUrYhfg30LJO4SSI6r6ZhZmrgrevy7lntWl3J6FcX2PKYzrW1WNkKTJlHF1UDyl+Tm0sw/a+S7aeTf5l2hly7cF44sNjEXp6jgMU2rgQqFkv0q+kIlt8J4N+F208z2085niKc3PxSMwXlKP0OiO4vgmDdyau6z9HuAM4HSgz3of+zAWYXEtY8oQpJAchamEu2VignqnGTgbOFYoeRZws+963S+fEnwmlaK1s6zMr9cAlwITSxMaoxU+TZhMzlydKU1oXFWa0PjLwB+b3GnkakM7N8QhIyn/Qij5aeAZ4BbSNazObAn8BXhWKLlXdx/KiM91Q/CeO975ZLQzpjSh8dysGxZkeOZan9KpDW8BRziTihdifImn9On5N2JpPOZRWii5JXAx8P1YG46XTwPPCCX/Cpzhu9676/xrBmau0qkNzzqTimMwaTgv69Pzr6StUzXUjHF1EDzgWB9yXCOtULIPMB6z/NoklkaT57vAN4WSFwOXdZQaiG32iUgwgMYziFom88tCG1S4K9XjjqVQ8jBgNqboZq0YVgctmHu+ZgslD4d4nsnGTv0pQKQt56Z+Kz8hlHwcU2RzeLp/SGSGAbcLJZ9s6r9yy7S34mudmlsWJkGUJdAmWy08EUtJXRb57CZbLty39cNUCwTXPPWZC6IeltoyrCLwAPZSW5z6zBWNunER8cDUTkd6GNjFd71DMBc8PJi0QK0zcIhc49SXhRBtpE02im0uMMF3vfs6fuG73mzgy0LJQ4DLMTeXxE/HLSd1QlOfuYh2YJrQqnA5cBowtrNhdcZ3vfsxs9gE4opUWYcMHCLXOPWZC7I0c2ngz8DPfdfr9RYZ3/XagMuFkrdgttJ/TFwDZn3mikzduIi2Wxhj3cIpwEm+602v9ouBIf5EKHk1cBXmaqBIaOozUFTqxgWgnfbw340sfT7mppMeL6OrBN/1Xgb2Dw60LyXKuVu0masQWu4GRN3nAnTJWaLN1ZvV74qF74CrgF8AY+IwrM74rncnJr3l50C4ANfwu4XP6pKzJM6/p1apGxfQfmI/jXYORDvnOI4uWDjPuQUY5bveBUldG+S73hrf9S7C7CbeFKqRKp6D4+gi2jkX7Xw+C/UrskB9Ub0eA+9+bXSxvfH+VQuGVHRJuLvLLAaLuZU2PxU42Xe9Z0MrGJIg/eW3wJ6VfH6JPxL18k4Vtd2yxeJ5DX1av7r066NmRVBxg6M+c63Hsm/u8Oryw4dtP3DHN45r3vSjFb3PXBWNT+8BxwB7p2FYAL7rPQfsDXwv0KcXep+tmjf9aOXAHd84bvnhw7arG1ZX6jNXD2z+r+m5wqq+V694Z4sfF9Y058t9ZsiuPoPHzumuiTWYg96LfdezWWatR4SSm2Cyu0+ja3Y3AEtmjmLxdFH2+w19Wov9tl5wfUPL6p8uPGDX+hKwG+rGVQGbPzZ9aOsHA+5a8e4W++jiujY2ZDefwWP/W+5rdwKn+65ns0BoVQglhwMTgcPX/7clM3dk8bR1jcvJl+i31ftPNw1Y8a1FX/jkQjta1i5146qCIQ/N2He1GiRXLRiydcfvhu4+k8E7r2NcLwPjfNd7wrqCIRFK7ocpjb1bx++WzNiRRS+NXfuZli0Wv9vXXXrU4oN3ftK+hrVJ3eeqgsUH7/yfFd/daptBo18/qWnAitXr7RguBn4K7F5LhgXgu96TwKeA4wETGRL8bU0DVqwZNPr1U1Z8d6ut64ZVHfWZKyRDH3mloX1ly/XNAz/82mAx53rgV77rJRDjZxeh5ADgF0v8UT9uXbrp/X2HLvnBe/vsGf6QfSPG0ToTxUnr1Nng+P9ScDeBk0bXEQAAAABJRU5ErkJggg==;fontSize=10;" vertex="1" parent="1">
          <mxGeometry x="651.37" y="862" width="32.26" height="30" as="geometry" />
        </mxCell>
      </root>
    </mxGraphModel>
  </diagram>
</mxfile>
